<?xml version="1.0" encoding="UTF-8" standalone="no"?>
<!-- Created with Inkscape (http://www.inkscape.org/) -->

<svg
   xmlns:osb="http://www.openswatchbook.org/uri/2009/osb"
   xmlns:dc="http://purl.org/dc/elements/1.1/"
   xmlns:cc="http://creativecommons.org/ns#"
   xmlns:rdf="http://www.w3.org/1999/02/22-rdf-syntax-ns#"
   xmlns:svg="http://www.w3.org/2000/svg"
   xmlns="http://www.w3.org/2000/svg"
   xmlns:sodipodi="http://sodipodi.sourceforge.net/DTD/sodipodi-0.dtd"
   xmlns:inkscape="http://www.inkscape.org/namespaces/inkscape"
   sodipodi:docname="logo_tmp.svg"
   inkscape:version="0.92.3 (2405546, 2018-03-11)"
   id="svg8"
   version="1.1"
   viewBox="0 0 8.4666667 8.4666667"
   height="32"
   width="32">
  <sodipodi:namedview
     units="px"
     inkscape:window-maximized="1"
     inkscape:window-y="0"
     inkscape:window-x="0"
     inkscape:window-height="688"
     inkscape:window-width="1366"
     showgrid="false"
     inkscape:current-layer="layer1"
     inkscape:document-units="mm"
     inkscape:cy="16.059512"
     inkscape:cx="14.920638"
     inkscape:zoom="13.439771"
     inkscape:pageshadow="2"
     inkscape:pageopacity="0.0"
     borderopacity="1.0"
     bordercolor="#666666"
     pagecolor="#ffffff"
     id="base"
     inkscape:measure-start="-284.615,669.231"
     inkscape:measure-end="488.462,515.385" />
  <defs
     id="defs2">
    <linearGradient
       id="linearGradient914"
       osb:paint="solid">
      <stop
         style="stop-color:#000300;stop-opacity:1;"
         offset="0"
         id="stop912" />
    </linearGradient>
    <marker
       inkscape:stockid="RazorWire"
       id="RazorWire"
       refX="0"
       refY="0"
       orient="auto"
       style="overflow:visible"
       inkscape:isstock="true">
      <path
         id="path6900"
         transform="scale(0.8)"
         style="fill:#000000;fill-opacity:1;fill-rule:evenodd;stroke:#000000;stroke-width:0.10000001pt;stroke-opacity:1"
         d="m 0.02272727,-0.74009011 v 1.4375 L -7.7585227,3.0099099 H 10.678977 L 3.4914773,0.69740989 v -1.4375 L 10.741477,-2.8963401 H -7.7272727 Z"
         inkscape:connector-curvature="0" />
    </marker>
    <marker
       inkscape:stockid="Arrow1Lstart"
       orient="auto"
       refY="0"
       refX="0"
       id="marker6974"
       style="overflow:visible"
       inkscape:isstock="true">
      <path
         id="path6972"
         d="M 0,0 5,-5 -12.5,0 5,5 Z"
         style="fill:#000000;fill-opacity:1;fill-rule:evenodd;stroke:#000000;stroke-width:1.00000003pt;stroke-opacity:1"
         transform="matrix(0.8,0,0,0.8,10,0)"
         inkscape:connector-curvature="0" />
    </marker>
    <marker
       inkscape:stockid="Arrow2Lstart"
       orient="auto"
       refY="0"
       refX="0"
       id="Arrow2Lstart"
       style="overflow:visible"
       inkscape:isstock="true">
      <path
         id="path6686"
         style="fill:#000000;fill-opacity:1;fill-rule:evenodd;stroke:#000000;stroke-width:0.625;stroke-linejoin:round;stroke-opacity:1"
         d="M 8.7185878,4.0337352 -2.2072895,0.01601326 8.7185884,-4.0017078 c -1.7454984,2.3720609 -1.7354408,5.6174519 -6e-7,8.035443 z"
         transform="matrix(1.1,0,0,1.1,1.1,0)"
         inkscape:connector-curvature="0" />
    </marker>
    <marker
       inkscape:stockid="Arrow1Lend"
       orient="auto"
       refY="0"
       refX="0"
       id="Arrow1Lend"
       style="overflow:visible"
       inkscape:isstock="true">
      <path
         id="path6671"
         d="M 0,0 5,-5 -12.5,0 5,5 Z"
         style="fill:#000000;fill-opacity:1;fill-rule:evenodd;stroke:#000000;stroke-width:1.00000003pt;stroke-opacity:1"
         transform="matrix(-0.8,0,0,-0.8,-10,0)"
         inkscape:connector-curvature="0" />
    </marker>
    <marker
       inkscape:stockid="Arrow1Lstart"
       orient="auto"
       refY="0"
       refX="0"
       id="Arrow1Lstart"
       style="overflow:visible"
       inkscape:isstock="true">
      <path
         id="path6668"
         d="M 0,0 5,-5 -12.5,0 5,5 Z"
         style="fill:#000000;fill-opacity:1;fill-rule:evenodd;stroke:#000000;stroke-width:1.00000003pt;stroke-opacity:1"
         transform="matrix(0.8,0,0,0.8,10,0)"
         inkscape:connector-curvature="0" />
    </marker>
    <linearGradient
       id="linearGradient4623"
       osb:paint="solid">
      <stop
         style="stop-color:#000000;stop-opacity:1;"
         offset="0"
         id="stop4621" />
    </linearGradient>
  </defs>
  <metadata
     id="metadata5">
    <rdf:RDF>
      <cc:Work
         rdf:about="">
        <dc:format>image/svg+xml</dc:format>
        <dc:type
           rdf:resource="http://purl.org/dc/dcmitype/StillImage" />
        <dc:title />
      </cc:Work>
    </rdf:RDF>
  </metadata>
  <g
     id="layer1"
     inkscape:groupmode="layer"
     inkscape:label="Layer 1"
     transform="translate(0,-288.53333)">
    <path
       style="fill:none;fill-opacity:1;stroke:#000000;stroke-width:11.29133797;stroke-linecap:round;stroke-linejoin:round;stroke-miterlimit:4;stroke-dasharray:none;stroke-opacity:1"
       d=""
       id="path7014"
       inkscape:connector-curvature="0"
       transform="scale(0.26458333)" />
    <path
       style="fill:none;fill-opacity:1;stroke:#000000;stroke-width:11.29133797;stroke-linecap:round;stroke-linejoin:round;stroke-miterlimit:4;stroke-dasharray:none;stroke-opacity:1"
       d=""
       id="path7020"
       inkscape:connector-curvature="0"
       transform="scale(0.26458333)" />
    <path
       style="fill:none;fill-opacity:1;stroke:#000000;stroke-width:11.29133797;stroke-linecap:round;stroke-linejoin:round;stroke-miterlimit:4;stroke-dasharray:none;stroke-opacity:1"
       d=""
       id="path7022"
       inkscape:connector-curvature="0"
       transform="scale(0.26458333)" />
    <rect
       style="fill:#ffffff;fill-opacity:1;stroke:none;stroke-width:0.09278907;stroke-linecap:round;stroke-linejoin:round;stroke-miterlimit:4;stroke-dasharray:none;stroke-opacity:1"
       id="rect950"
       width="8.4235382"
       height="8.4235382"
       x="0.08474791"
       y="288.60391" />
    <path
       id="path961"
       title="(0.5*(1+sqrt(5)))**(-2*x/pi)"
       d="m 2.0250185,293.6153 c 0.00651,4.1e-4 0.013009,7.4e-4 0.019496,9.8e-4 0.00649,2.3e-4 0.012962,4.1e-4 0.019424,4.9e-4 0.00646,6e-5 0.012912,6e-5 0.019349,-10e-6 0.00644,-10e-5 0.012861,-2.6e-4 0.019272,-5e-4 0.00641,-2.6e-4 0.012808,-5.7e-4 0.019191,-9.7e-4 0.00638,-4.1e-4 0.012753,-9e-4 0.019108,-0.001 0.00636,-5.6e-4 0.012696,-10e-4 0.019022,-0.002 0.00633,-7.2e-4 0.012637,-0.002 0.018933,-0.002 0.0063,-8.8e-4 0.012576,-0.002 0.018841,-0.003 0.00626,-10e-4 0.012514,-0.002 0.018747,-0.003 0.00623,-10e-4 0.01245,-0.002 0.01865,-0.004 0.0062,-10e-4 0.012384,-0.003 0.018551,-0.004 0.00617,-0.001 0.012316,-0.003 0.018448,-0.005 0.00613,-0.002 0.012247,-0.003 0.018344,-0.005 0.0061,-0.002 0.012176,-0.004 0.018237,-0.006 0.00606,-0.002 0.012103,-0.004 0.018127,-0.006 0.00602,-0.002 0.012029,-0.004 0.018016,-0.006 0.00599,-0.002 0.011953,-0.005 0.017901,-0.007 0.00595,-0.002 0.011876,-0.005 0.017785,-0.007 0.00591,-0.003 0.011797,-0.005 0.017666,-0.008 0.00587,-0.003 0.011717,-0.005 0.017545,-0.008 0.00583,-0.003 0.011635,-0.006 0.017421,-0.009 0.00579,-0.003 0.011552,-0.006 0.017296,-0.009 0.00574,-0.003 0.011467,-0.006 0.017168,-0.009 0.0057,-0.003 0.011381,-0.006 0.017038,-0.01 0.00566,-0.003 0.011293,-0.007 0.016907,-0.0101 0.00561,-0.003 0.011204,-0.007 0.016773,-0.0105 0.00557,-0.004 0.011114,-0.007 0.016637,-0.0109 0.00552,-0.004 0.011023,-0.007 0.0165,-0.0113 0.00548,-0.004 0.01093,-0.008 0.01636,-0.0116 0.00543,-0.004 0.010836,-0.008 0.016219,-0.012 0.00538,-0.004 0.010741,-0.008 0.016075,-0.0124 0.00533,-0.004 0.010645,-0.008 0.01593,-0.0127 0.00529,-0.004 0.010547,-0.009 0.015784,-0.0131 0.00524,-0.004 0.010449,-0.009 0.015635,-0.0134 0.00519,-0.005 0.010349,-0.009 0.015485,-0.0138 0.00514,-0.005 0.010248,-0.009 0.015334,-0.0141 0.00509,-0.005 0.010146,-0.01 0.01518,-0.0144 0.00503,-0.005 0.010043,-0.01 0.015026,-0.0147 0.00498,-0.005 0.00994,-0.01 0.014869,-0.0151 0.00493,-0.005 0.00983,-0.0102 0.014712,-0.0154 0.00488,-0.005 0.00973,-0.0104 0.014553,-0.0157 0.00482,-0.005 0.00962,-0.0106 0.014392,-0.016 0.00477,-0.005 0.00951,-0.0108 0.01423,-0.0163 0.00472,-0.005 0.00941,-0.011 0.014067,-0.0166 0.00466,-0.006 0.0093,-0.0112 0.013903,-0.0169 0.00461,-0.006 0.00919,-0.0114 0.013737,-0.0171 0.00455,-0.006 0.00907,-0.0116 0.013571,-0.0174 0.0045,-0.006 0.00896,-0.0118 0.013403,-0.0177 0.00444,-0.006 0.00885,-0.0119 0.013234,-0.018 0.00438,-0.006 0.00874,-0.0121 0.013064,-0.0182 0.00433,-0.006 0.00862,-0.0123 0.012893,-0.0185 0.00427,-0.006 0.00851,-0.0125 0.012721,-0.0187 0.00421,-0.006 0.00839,-0.0126 0.012547,-0.019 0.00415,-0.006 0.00828,-0.0128 0.012374,-0.0192 0.0041,-0.006 0.00816,-0.0129 0.012199,-0.0195 0.00404,-0.007 0.00805,-0.0131 0.012023,-0.0197 0.00398,-0.007 0.00793,-0.0132 0.011847,-0.0199 0.00392,-0.007 0.00781,-0.0134 0.01167,-0.0201 0.00386,-0.007 0.00769,-0.0135 0.011492,-0.0203 0.0038,-0.007 0.00757,-0.0137 0.011314,-0.0205 0.00374,-0.007 0.00745,-0.0138 0.011135,-0.0208 0.00368,-0.007 0.00733,-0.0139 0.010955,-0.0209 0.00362,-0.007 0.00721,-0.014 0.010775,-0.0211 0.00356,-0.007 0.00709,-0.0142 0.010594,-0.0213 0.0035,-0.007 0.00697,-0.0143 0.010413,-0.0215 0.00344,-0.007 0.00685,-0.0144 0.010231,-0.0217 0.00338,-0.007 0.00673,-0.0145 0.010049,-0.0218 0.00332,-0.007 0.00661,-0.0146 0.00987,-0.022 0.00326,-0.007 0.00649,-0.0147 0.00968,-0.0222 0.0032,-0.007 0.00636,-0.0149 0.0095,-0.0223 0.00314,-0.007 0.00624,-0.015 0.00932,-0.0225 0.00307,-0.008 0.00612,-0.0151 0.00913,-0.0226 0.00301,-0.008 0.006,-0.0152 0.00895,-0.0228 0.00295,-0.008 0.00587,-0.0152 0.00876,-0.0229 0.00289,-0.008 0.00575,-0.0153 0.00858,-0.023 0.00283,-0.008 0.00563,-0.0154 0.0084,-0.0231 0.00277,-0.008 0.00551,-0.0155 0.00821,-0.0233 0.00271,-0.008 0.00538,-0.0156 0.00803,-0.0234 0.00265,-0.008 0.00526,-0.0156 0.00784,-0.0235 0.00258,-0.008 0.00514,-0.0157 0.00766,-0.0236 0.00252,-0.008 0.00501,-0.0158 0.00747,-0.0237 0.00246,-0.008 0.00489,-0.0158 0.00729,-0.0238 0.0024,-0.008 0.00477,-0.0159 0.00711,-0.0239 0.00234,-0.008 0.00465,-0.0159 0.00692,-0.0239 0.00228,-0.008 0.00452,-0.016 0.00674,-0.024 0.00222,-0.008 0.0044,-0.0161 0.00656,-0.0241 0.00215,-0.008 0.00428,-0.0161 0.00637,-0.0242 0.00209,-0.008 0.00416,-0.0161 0.00619,-0.0242 0.00203,-0.008 0.00403,-0.0162 0.00601,-0.0243 0.00197,-0.008 0.00391,-0.0162 0.00582,-0.0243 0.00191,-0.008 0.00379,-0.0163 0.00564,-0.0244 0.00185,-0.008 0.00367,-0.0163 0.00546,-0.0244 0.00179,-0.008 0.00355,-0.0163 0.00528,-0.0245 0.00173,-0.008 0.00343,-0.0163 0.0051,-0.0245 0.00167,-0.008 0.00331,-0.0164 0.00492,-0.0245 0.00161,-0.008 0.00319,-0.0164 0.00474,-0.0246 0.00155,-0.008 0.00307,-0.0164 0.00456,-0.0246 0.00149,-0.008 0.00295,-0.0164 0.00438,-0.0246 0.00143,-0.008 0.00283,-0.0164 0.0042,-0.0246 0.00137,-0.008 0.00271,-0.0164 0.00403,-0.0246 0.00131,-0.008 0.0026,-0.0164 0.00385,-0.0246 0.00125,-0.008 0.00248,-0.0164 0.00368,-0.0246 0.0012,-0.008 0.00236,-0.0164 0.0035,-0.0246 0.00114,-0.008 0.00225,-0.0164 0.00333,-0.0246 0.00108,-0.008 0.00213,-0.0164 0.00315,-0.0246 0.00102,-0.008 0.00202,-0.0164 0.00298,-0.0246 9.647e-4,-0.008 0.0019,-0.0164 0.00281,-0.0245 9.075e-4,-0.008 0.00179,-0.0164 0.00264,-0.0245 8.507e-4,-0.008 0.00167,-0.0163 0.00247,-0.0245 7.941e-4,-0.008 0.00156,-0.0163 0.0023,-0.0245 7.378e-4,-0.008 0.00145,-0.0163 0.00213,-0.0244 6.816e-4,-0.008 0.00134,-0.0163 0.00196,-0.0244 6.261e-4,-0.008 0.00122,-0.0162 0.00179,-0.0243 5.708e-4,-0.008 0.00111,-0.0162 0.00163,-0.0243 5.155e-4,-0.008 10e-4,-0.0162 0.00146,-0.0242 4.609e-4,-0.008 8.948e-4,-0.0161 0.0013,-0.0241 4.067e-4,-0.008 7.863e-4,-0.0161 0.00114,-0.0241 3.527e-4,-0.008 6.784e-4,-0.016 9.775e-4,-0.024 2.975e-4,-0.008 5.714e-4,-0.016 8.173e-4,-0.0239 2.452e-4,-0.008 4.649e-4,-0.0159 6.581e-4,-0.0239 1.929e-4,-0.008 3.596e-4,-0.0159 4.998e-4,-0.0238 1.406e-4,-0.008 2.55e-4,-0.0158 3.43e-4,-0.0237 8.82e-5,-0.008 1.503e-4,-0.0158 1.863e-4,-0.0236 3.6e-5,-0.008 4.9e-5,-0.0157 3.27e-5,-0.0235 -1.47e-5,-0.008 -5.56e-5,-0.0156 -1.21e-4,-0.0234 -6.53e-5,-0.008 -1.569e-4,-0.0156 -2.713e-4,-0.0233 -1.177e-4,-0.008 -2.583e-4,-0.0155 -4.237e-4,-0.0233 -1.667e-4,-0.008 -3.573e-4,-0.0154 -5.731e-4,-0.0231 -2.157e-4,-0.008 -4.564e-4,-0.0154 -7.215e-4,-0.023 -2.648e-4,-0.008 -5.548e-4,-0.0153 -8.686e-4,-0.0229 -3.139e-4,-0.008 -6.522e-4,-0.0152 -0.00101,-0.0228 -3.623e-4,-0.008 -7.487e-4,-0.0151 -0.00116,-0.0227 -4.103e-4,-0.008 -8.441e-4,-0.0151 -0.0013,-0.0226 -4.576e-4,-0.007 -9.389e-4,-0.015 -0.00144,-0.0224 -5.048e-4,-0.007 -0.00103,-0.0149 -0.00158,-0.0223 -5.511e-4,-0.007 -0.00113,-0.0148 -0.00172,-0.0222 -5.973e-4,-0.007 -0.00122,-0.0147 -0.00186,-0.0221 -6.427e-4,-0.007 -0.00131,-0.0146 -0.002,-0.0219 -6.882e-4,-0.007 -0.0014,-0.0145 -0.00213,-0.0218 -7.326e-4,-0.007 -0.00149,-0.0145 -0.00226,-0.0217 -7.767e-4,-0.007 -0.00158,-0.0144 -0.0024,-0.0215 -8.205e-4,-0.007 -0.00166,-0.0143 -0.00253,-0.0213 -8.637e-4,-0.007 -0.00175,-0.0142 -0.00266,-0.0212 -9.065e-4,-0.007 -0.00183,-0.0141 -0.00278,-0.0211 -9.487e-4,-0.007 -0.00192,-0.014 -0.00291,-0.0209 -9.905e-4,-0.007 -0.002,-0.0138 -0.00303,-0.0207 -0.00103,-0.007 -0.00208,-0.0138 -0.00316,-0.0206 -0.00107,-0.007 -0.00216,-0.0136 -0.00328,-0.0204 -0.00111,-0.007 -0.00224,-0.0135 -0.0034,-0.0203 -0.00115,-0.007 -0.00232,-0.0134 -0.00352,-0.0201 -0.00119,-0.007 -0.0024,-0.0133 -0.00363,-0.0199 -0.00123,-0.007 -0.00248,-0.0132 -0.00375,-0.0197 -0.00127,-0.007 -0.00256,-0.0131 -0.00386,-0.0196 -0.00131,-0.007 -0.00263,-0.013 -0.00397,-0.0194 -0.00134,-0.006 -0.0027,-0.0129 -0.00408,-0.0192 -0.00138,-0.006 -0.00278,-0.0127 -0.00419,-0.019 -0.00142,-0.006 -0.00285,-0.0126 -0.0043,-0.0188 -0.00145,-0.006 -0.00292,-0.0125 -0.0044,-0.0187 -0.00149,-0.006 -0.00299,-0.0124 -0.00451,-0.0185 -0.00152,-0.006 -0.00306,-0.0122 -0.00461,-0.0183 -0.00155,-0.006 -0.00312,-0.0121 -0.00471,-0.0181 -0.00159,-0.006 -0.00319,-0.012 -0.00481,-0.0179 -0.00162,-0.006 -0.00326,-0.0118 -0.00491,-0.0177 -0.00165,-0.006 -0.00332,-0.0117 -0.005,-0.0175 -0.00168,-0.006 -0.00338,-0.0116 -0.0051,-0.0173 -0.00171,-0.006 -0.00344,-0.0115 -0.00519,-0.0171 -0.00175,-0.006 -0.00351,-0.0113 -0.00528,-0.0169 -0.00178,-0.006 -0.00357,-0.0112 -0.00537,-0.0167 -0.0018,-0.006 -0.00362,-0.0111 -0.00546,-0.0165 -0.00183,-0.005 -0.00368,-0.0109 -0.00554,-0.0163 -0.00186,-0.005 -0.00374,-0.0108 -0.00563,-0.0161 -0.00189,-0.005 -0.00379,-0.0106 -0.00571,-0.0159 -0.00192,-0.005 -0.00385,-0.0105 -0.00579,-0.0157 -0.00194,-0.005 -0.0039,-0.0104 -0.00587,-0.0155 -0.00197,-0.005 -0.00395,-0.0102 -0.00595,-0.0153 -0.00199,-0.005 -0.004,-0.0101 -0.00602,-0.0151 -0.00202,-0.005 -0.00405,-0.01 -0.0061,-0.0149 -0.00204,-0.005 -0.0041,-0.01 -0.00617,-0.0147 -0.00207,-0.005 -0.00415,-0.01 -0.00624,-0.0144 -0.00209,-0.005 -0.00419,-0.01 -0.00631,-0.0142 -0.00211,-0.005 -0.00424,-0.009 -0.00638,-0.014 -0.00214,-0.005 -0.00428,-0.009 -0.00644,-0.0138 -0.00216,-0.005 -0.00433,-0.009 -0.00651,-0.0136 -0.00218,-0.004 -0.00437,-0.009 -0.00657,-0.0134 -0.0022,-0.004 -0.00441,-0.009 -0.00663,-0.0131 -0.00222,-0.004 -0.00445,-0.009 -0.00669,-0.0129 -0.00224,-0.004 -0.00449,-0.009 -0.00674,-0.0127 -0.00226,-0.004 -0.00452,-0.008 -0.0068,-0.0125 -0.00228,-0.004 -0.00456,-0.008 -0.00685,-0.0123 -0.00229,-0.004 -0.0046,-0.008 -0.00691,-0.012 -0.00231,-0.004 -0.00463,-0.008 -0.00696,-0.0118 -0.00233,-0.004 -0.00466,-0.008 -0.00701,-0.0116 -0.00234,-0.004 -0.00469,-0.008 -0.00705,-0.0114 -0.00236,-0.004 -0.00473,-0.007 -0.0071,-0.0111 -0.00237,-0.004 -0.00476,-0.007 -0.00714,-0.0109 -0.00239,-0.004 -0.00478,-0.007 -0.00719,-0.0107 -0.0024,-0.004 -0.00481,-0.007 -0.00723,-0.0105 -0.00242,-0.003 -0.00484,-0.007 -0.00727,-0.0102 -0.00243,-0.003 -0.00486,-0.007 -0.0073,-0.01 -0.00244,-0.003 -0.00489,-0.007 -0.00734,-0.01 -0.00245,-0.003 -0.00491,-0.006 -0.00737,-0.01 -0.00246,-0.003 -0.00493,-0.006 -0.00741,-0.009 -0.00247,-0.003 -0.00495,-0.006 -0.00744,-0.009 -0.00248,-0.003 -0.00497,-0.006 -0.00747,-0.009 -0.00249,-0.003 -0.00499,-0.006 -0.0075,-0.009 -0.0025,-0.003 -0.00501,-0.006 -0.00752,-0.008 -0.00251,-0.003 -0.00503,-0.006 -0.00755,-0.008 -0.00252,-0.003 -0.00504,-0.005 -0.00757,-0.008 -0.00253,-0.003 -0.00506,-0.005 -0.00759,-0.008 -0.00253,-0.003 -0.00507,-0.005 -0.00761,-0.008 -0.00254,-0.002 -0.00508,-0.005 -0.00763,-0.007 -0.00255,-0.002 -0.0051,-0.005 -0.00765,-0.007 -0.00255,-0.002 -0.00511,-0.005 -0.00766,-0.007 -0.00256,-0.002 -0.00512,-0.005 -0.00768,-0.007 -0.00256,-0.002 -0.00513,-0.004 -0.00769,-0.006 -0.00257,-0.002 -0.00513,-0.004 -0.0077,-0.006 -0.00257,-0.002 -0.00514,-0.004 -0.00771,-0.006 -0.00257,-0.002 -0.00515,-0.004 -0.00772,-0.006 -0.00257,-0.002 -0.00515,-0.004 -0.00773,-0.006 -0.00258,-0.002 -0.00515,-0.004 -0.00773,-0.005 -0.00258,-0.002 -0.00516,-0.003 -0.00774,-0.005 -0.00258,-0.002 -0.00516,-0.003 -0.00774,-0.005 -0.00258,-0.002 -0.00516,-0.003 -0.00774,-0.005 -0.00258,-0.002 -0.00516,-0.003 -0.00774,-0.005 -0.00258,-10e-4 -0.00516,-0.003 -0.00774,-0.004 -0.00258,-10e-4 -0.00516,-0.003 -0.00774,-0.004 -0.00258,-0.001 -0.00516,-0.003 -0.00773,-0.004 -0.00258,-10e-4 -0.00515,-0.002 -0.00773,-0.004 -0.00257,-10e-4 -0.00515,-0.002 -0.00772,-0.003 -0.00257,-10e-4 -0.00514,-0.002 -0.00771,-0.003 -0.00257,-0.001 -0.00514,-0.002 -0.0077,-0.003 -0.00257,-9.8e-4 -0.00513,-0.002 -0.00769,-0.003 -0.00256,-9.1e-4 -0.00512,-0.002 -0.00768,-0.003 -0.00256,-8.4e-4 -0.00511,-0.002 -0.00766,-0.002 -0.00255,-7.8e-4 -0.0051,-0.002 -0.00765,-0.002 -0.00255,-7.1e-4 -0.00509,-10e-4 -0.00763,-0.002 -0.00254,-6.4e-4 -0.00508,-0.001 -0.00761,-0.002 -0.00254,-5.7e-4 -0.00507,-0.001 -0.0076,-0.002 -0.00253,-5.1e-4 -0.00505,-9.9e-4 -0.00758,-10e-4 -0.00252,-4.5e-4 -0.00504,-8.6e-4 -0.00756,-0.001 -0.00251,-3.7e-4 -0.00503,-7.2e-4 -0.00753,-10e-4 -0.00251,-3.2e-4 -0.00501,-6e-4 -0.00751,-8.5e-4 -0.0025,-2.4e-4 -0.00499,-4.6e-4 -0.00748,-6.5e-4 -0.00249,-1.8e-4 -0.00498,-3.4e-4 -0.00746,-4.6e-4 -0.00248,-1.2e-4 -0.00496,-2.1e-4 -0.00743,-2.7e-4 -0.00247,-6e-5 -0.00494,-8e-5 -0.0074,-8e-5 -0.00246,0 -0.00492,4e-5 -0.00737,1e-4 -0.00245,7e-5 -0.0049,1.7e-4 -0.00734,3e-4"
       style="fill:none;fill-opacity:1;stroke:none;stroke-width:2.53400016;stroke-linecap:round;stroke-linejoin:round;stroke-miterlimit:4;stroke-dasharray:none;stroke-opacity:1"
       inkscape:connector-curvature="0" />
    <path
       style="fill:none;fill-opacity:1;stroke:none;stroke-width:2.53400016;stroke-linecap:round;stroke-linejoin:round;stroke-miterlimit:4;stroke-dasharray:none;stroke-opacity:1"
       d="m 2.6641398,293.12501 c 0.00536,3.4e-4 0.010719,6.1e-4 0.016065,8.2e-4 0.00534,1.9e-4 0.01068,3.4e-4 0.016005,4e-4 0.00533,7e-5 0.01064,7e-5 0.015944,0 0.0053,-7e-5 0.010597,-2e-4 0.01588,-4.2e-4 0.00528,-1.9e-4 0.010553,-4.8e-4 0.015813,-8.2e-4 0.00526,-3.4e-4 0.010508,-7.5e-4 0.015745,-0.001 0.00524,-4.7e-4 0.010461,-10e-4 0.015674,-0.002 0.00521,-6e-4 0.010413,-10e-4 0.015601,-0.002 0.00519,-7.4e-4 0.010363,-0.002 0.015525,-0.002 0.00516,-8.6e-4 0.010311,-0.002 0.015447,-0.003 0.00514,-9.9e-4 0.010258,-0.002 0.015367,-0.003 0.00511,-10e-4 0.010204,-0.002 0.015286,-0.004 0.00508,-10e-4 0.010148,-0.003 0.015201,-0.004 0.00505,-0.001 0.010091,-0.003 0.015115,-0.004 0.00502,-10e-4 0.010033,-0.003 0.015027,-0.005 0.00499,-0.002 0.00997,-0.003 0.014937,-0.005 0.00496,-0.002 0.00991,-0.004 0.014845,-0.005 0.00493,-0.002 0.00985,-0.004 0.01475,-0.006 0.0049,-0.002 0.00979,-0.004 0.014654,-0.006 0.00487,-0.002 0.00972,-0.004 0.014556,-0.006 0.00484,-0.002 0.00965,-0.004 0.014457,-0.007 0.0048,-0.002 0.00959,-0.005 0.014355,-0.007 0.00477,-0.002 0.00952,-0.005 0.014252,-0.007 0.00473,-0.003 0.00945,-0.005 0.014146,-0.008 0.0047,-0.003 0.00938,-0.005 0.014039,-0.008 0.00466,-0.003 0.00931,-0.006 0.013931,-0.008 0.00463,-0.003 0.00923,-0.006 0.013821,-0.009 0.00459,-0.003 0.00916,-0.006 0.013709,-0.009 0.00455,-0.003 0.00908,-0.006 0.013596,-0.009 0.00451,-0.003 0.00901,-0.006 0.013481,-0.01 0.00447,-0.003 0.00893,-0.007 0.013364,-0.0101 0.00444,-0.003 0.00885,-0.007 0.013246,-0.0104 0.0044,-0.004 0.00877,-0.007 0.013127,-0.0107 0.00436,-0.004 0.00869,-0.007 0.013006,-0.0109 0.00431,-0.004 0.00861,-0.007 0.012883,-0.0112 0.00427,-0.004 0.00853,-0.008 0.01276,-0.0115 0.00423,-0.004 0.00844,-0.008 0.012635,-0.0118 0.00419,-0.004 0.00836,-0.008 0.012509,-0.0121 0.00415,-0.004 0.00828,-0.008 0.012381,-0.0124 0.00411,-0.004 0.00819,-0.008 0.012252,-0.0126 0.00406,-0.004 0.0081,-0.009 0.012122,-0.0129 0.00402,-0.004 0.00802,-0.009 0.011991,-0.0131 0.00398,-0.004 0.00793,-0.009 0.011859,-0.0134 0.00393,-0.005 0.00784,-0.009 0.011726,-0.0136 0.00389,-0.005 0.00775,-0.009 0.011591,-0.0139 0.00384,-0.005 0.00766,-0.009 0.011456,-0.0141 0.0038,-0.005 0.00757,-0.01 0.011319,-0.0144 0.00375,-0.005 0.00748,-0.01 0.011182,-0.0146 0.0037,-0.005 0.00739,-0.01 0.011044,-0.0148 0.00366,-0.005 0.00729,-0.01 0.010904,-0.0151 0.00361,-0.005 0.0072,-0.0101 0.010764,-0.0153 0.00356,-0.005 0.00711,-0.0103 0.010623,-0.0155 0.00352,-0.005 0.00701,-0.0104 0.010482,-0.0157 0.00347,-0.005 0.00692,-0.0106 0.010339,-0.0159 0.00342,-0.005 0.00682,-0.0107 0.010196,-0.0161 0.00337,-0.005 0.00673,-0.0108 0.010052,-0.0163 0.00333,-0.005 0.00663,-0.011 0.00991,-0.0165 0.00328,-0.006 0.00653,-0.0111 0.00976,-0.0167 0.00323,-0.006 0.00643,-0.0112 0.00962,-0.0169 0.00318,-0.006 0.00634,-0.0113 0.00947,-0.017 0.00313,-0.006 0.00624,-0.0115 0.00932,-0.0172 0.00308,-0.006 0.00614,-0.0116 0.00917,-0.0174 0.00303,-0.006 0.00604,-0.0117 0.00903,-0.0176 0.00298,-0.006 0.00594,-0.0118 0.00888,-0.0177 0.00293,-0.006 0.00584,-0.0119 0.00873,-0.0179 0.00289,-0.006 0.00574,-0.012 0.00858,-0.018 0.00283,-0.006 0.00564,-0.0121 0.00843,-0.0182 0.00278,-0.006 0.00555,-0.0122 0.00828,-0.0183 0.00273,-0.006 0.00544,-0.0123 0.00813,-0.0185 0.00268,-0.006 0.00534,-0.0124 0.00798,-0.0186 0.00263,-0.006 0.00524,-0.0125 0.00783,-0.0187 0.00258,-0.006 0.00514,-0.0125 0.00768,-0.0188 0.00253,-0.006 0.00504,-0.0126 0.00753,-0.019 0.00248,-0.006 0.00494,-0.0127 0.00737,-0.0191 0.00243,-0.006 0.00484,-0.0128 0.00722,-0.0192 0.00238,-0.006 0.00474,-0.0129 0.00707,-0.0193 0.00233,-0.006 0.00464,-0.0129 0.00692,-0.0194 0.00228,-0.006 0.00454,-0.013 0.00677,-0.0195 0.00223,-0.007 0.00444,-0.0131 0.00661,-0.0196 0.00218,-0.007 0.00433,-0.0131 0.00646,-0.0197 0.00213,-0.007 0.00423,-0.0132 0.00631,-0.0198 0.00208,-0.007 0.00413,-0.0132 0.00616,-0.0198 0.00203,-0.007 0.00403,-0.0133 0.00601,-0.0199 0.00198,-0.007 0.00393,-0.0133 0.00586,-0.02 0.00193,-0.007 0.00383,-0.0134 0.0057,-0.0201 0.00188,-0.007 0.00373,-0.0134 0.00555,-0.0201 0.00183,-0.007 0.00363,-0.0135 0.0054,-0.0202 0.00178,-0.007 0.00353,-0.0135 0.00525,-0.0203 0.00173,-0.007 0.00343,-0.0135 0.0051,-0.0203 0.00167,-0.007 0.00332,-0.0136 0.00495,-0.0204 0.00162,-0.007 0.00322,-0.0136 0.0048,-0.0204 0.00157,-0.007 0.00312,-0.0136 0.00465,-0.0205 0.00152,-0.007 0.00302,-0.0136 0.0045,-0.0205 0.00148,-0.007 0.00293,-0.0137 0.00435,-0.0205 0.00143,-0.007 0.00283,-0.0137 0.0042,-0.0205 0.00138,-0.007 0.00273,-0.0137 0.00405,-0.0206 0.00133,-0.007 0.00263,-0.0137 0.00391,-0.0206 0.00128,-0.007 0.00253,-0.0137 0.00376,-0.0206 0.00123,-0.007 0.00243,-0.0137 0.00361,-0.0206 0.00118,-0.007 0.00233,-0.0138 0.00346,-0.0206 0.00113,-0.007 0.00224,-0.0138 0.00332,-0.0206 0.00108,-0.007 0.00214,-0.0138 0.00317,-0.0206 0.00103,-0.007 0.00204,-0.0138 0.00303,-0.0206 9.853e-4,-0.007 0.00195,-0.0138 0.00288,-0.0206 9.376e-4,-0.007 0.00185,-0.0138 0.00274,-0.0206 8.899e-4,-0.007 0.00176,-0.0137 0.0026,-0.0206 8.422e-4,-0.007 0.00166,-0.0137 0.00246,-0.0206 7.948e-4,-0.007 0.00157,-0.0137 0.00231,-0.0206 7.477e-4,-0.007 0.00147,-0.0137 0.00217,-0.0206 7.01e-4,-0.007 0.00138,-0.0137 0.00203,-0.0205 6.542e-4,-0.007 0.00129,-0.0137 0.00189,-0.0205 6.077e-4,-0.007 0.00119,-0.0136 0.00175,-0.0205 5.616e-4,-0.007 0.0011,-0.0136 0.00162,-0.0204 5.159e-4,-0.007 0.00101,-0.0136 0.00148,-0.0204 4.701e-4,-0.007 9.176e-4,-0.0136 0.00134,-0.0203 4.25e-4,-0.007 8.271e-4,-0.0135 0.00121,-0.0203 3.799e-4,-0.007 7.372e-4,-0.0135 0.00107,-0.0202 3.351e-4,-0.007 6.476e-4,-0.0135 9.383e-4,-0.0202 2.909e-4,-0.007 5.59e-4,-0.0134 8.055e-4,-0.0201 2.452e-4,-0.007 4.708e-4,-0.0134 6.734e-4,-0.0201 2.027e-4,-0.007 3.832e-4,-0.0134 5.421e-4,-0.02 1.602e-4,-0.007 2.975e-4,-0.0133 4.119e-4,-0.0199 1.144e-4,-0.007 2.092e-4,-0.0133 2.811e-4,-0.0199 7.2e-5,-0.007 1.243e-4,-0.0132 1.537e-4,-0.0198 3.02e-5,-0.007 3.92e-5,-0.0132 2.69e-5,-0.0197 -1.21e-5,-0.007 -4.57e-5,-0.0131 -9.8e-5,-0.0196 -5.56e-5,-0.007 -1.275e-4,-0.0131 -2.256e-4,-0.0196 -9.48e-5,-0.006 -2.125e-4,-0.013 -3.492e-4,-0.0195 -1.373e-4,-0.006 -2.942e-4,-0.0129 -4.724e-4,-0.0194 -1.765e-4,-0.006 -3.762e-4,-0.0129 -5.946e-4,-0.0193 -2.191e-4,-0.006 -4.571e-4,-0.0128 -7.157e-4,-0.0192 -2.582e-4,-0.006 -5.374e-4,-0.0128 -8.359e-4,-0.0191 -2.975e-4,-0.006 -6.169e-4,-0.0127 -9.549e-4,-0.019 -3.381e-4,-0.006 -6.957e-4,-0.0126 -0.00107,-0.0189 -3.77e-4,-0.006 -7.739e-4,-0.0126 -0.00119,-0.0188 -4.158e-4,-0.006 -8.509e-4,-0.0125 -0.0013,-0.0187 -4.541e-4,-0.006 -9.275e-4,-0.0124 -0.00142,-0.0186 -4.92e-4,-0.006 -10e-4,-0.0123 -0.00153,-0.0185 -5.296e-4,-0.006 -0.00108,-0.0123 -0.00165,-0.0184 -5.669e-4,-0.006 -0.00115,-0.0122 -0.00176,-0.0183 -6.038e-4,-0.006 -0.00123,-0.0121 -0.00187,-0.0181 -6.401e-4,-0.006 -0.0013,-0.012 -0.00197,-0.018 -6.761e-4,-0.006 -0.00137,-0.012 -0.00208,-0.0179 -7.117e-4,-0.006 -0.00144,-0.0119 -0.00219,-0.0178 -7.47e-4,-0.006 -0.00151,-0.0118 -0.00229,-0.0177 -7.817e-4,-0.006 -0.00158,-0.0117 -0.0024,-0.0175 -8.16e-4,-0.006 -0.00165,-0.0116 -0.0025,-0.0174 -8.499e-4,-0.006 -0.00172,-0.0115 -0.0026,-0.0172 -8.837e-4,-0.006 -0.00178,-0.0114 -0.0027,-0.0171 -9.167e-4,-0.006 -0.00185,-0.0113 -0.0028,-0.017 -9.494e-4,-0.006 -0.00192,-0.0113 -0.0029,-0.0168 -9.817e-4,-0.006 -0.00198,-0.0112 -0.00299,-0.0167 -0.00101,-0.006 -0.00204,-0.0111 -0.00309,-0.0165 -0.00104,-0.005 -0.00211,-0.011 -0.00318,-0.0164 -0.00108,-0.005 -0.00217,-0.0109 -0.00327,-0.0163 -0.00111,-0.005 -0.00223,-0.0108 -0.00336,-0.0161 -0.00114,-0.005 -0.00229,-0.0107 -0.00345,-0.016 -0.00117,-0.005 -0.00235,-0.0106 -0.00354,-0.0158 -0.0012,-0.005 -0.00241,-0.0105 -0.00363,-0.0157 -0.00122,-0.005 -0.00246,-0.0104 -0.00371,-0.0155 -0.00125,-0.005 -0.00252,-0.0103 -0.0038,-0.0153 -0.00128,-0.005 -0.00257,-0.0102 -0.00388,-0.0152 -0.00131,-0.005 -0.00263,-0.01 -0.00396,-0.015 -0.00133,-0.005 -0.00268,-0.01 -0.00404,-0.0148 -0.00136,-0.005 -0.00274,-0.01 -0.00412,-0.0147 -0.00139,-0.005 -0.00279,-0.01 -0.0042,-0.0145 -0.00141,-0.005 -0.00284,-0.01 -0.00428,-0.0144 -0.00144,-0.005 -0.00289,-0.009 -0.00435,-0.0142 -0.00146,-0.005 -0.00294,-0.009 -0.00442,-0.014 -0.00149,-0.005 -0.00299,-0.009 -0.0045,-0.0139 -0.00151,-0.005 -0.00303,-0.009 -0.00457,-0.0137 -0.00153,-0.005 -0.00308,-0.009 -0.00464,-0.0135 -0.00156,-0.004 -0.00313,-0.009 -0.0047,-0.0134 -0.00158,-0.004 -0.00317,-0.009 -0.00477,-0.0132 -0.0016,-0.004 -0.00321,-0.009 -0.00484,-0.013 -0.00162,-0.004 -0.00326,-0.009 -0.0049,-0.0128 -0.00164,-0.004 -0.0033,-0.008 -0.00496,-0.0126 -0.00166,-0.004 -0.00334,-0.008 -0.00502,-0.0125 -0.00168,-0.004 -0.00338,-0.008 -0.00508,-0.0123 -0.0017,-0.004 -0.00342,-0.008 -0.00514,-0.0121 -0.00172,-0.004 -0.00346,-0.008 -0.0052,-0.0119 -0.00174,-0.004 -0.00349,-0.008 -0.00525,-0.0118 -0.00176,-0.004 -0.00353,-0.008 -0.00531,-0.0116 -0.00178,-0.004 -0.00357,-0.008 -0.00536,-0.0114 -0.0018,-0.004 -0.0036,-0.007 -0.00541,-0.0112 -0.00181,-0.004 -0.00363,-0.007 -0.00546,-0.011 -0.00183,-0.004 -0.00367,-0.007 -0.00551,-0.0108 -0.00184,-0.004 -0.0037,-0.007 -0.00556,-0.0106 -0.00186,-0.004 -0.00373,-0.007 -0.0056,-0.0105 -0.00188,-0.003 -0.00376,-0.007 -0.00565,-0.0103 -0.00189,-0.003 -0.00379,-0.007 -0.00569,-0.0101 -0.0019,-0.003 -0.00382,-0.007 -0.00573,-0.01 -0.00192,-0.003 -0.00384,-0.007 -0.00577,-0.01 -0.00193,-0.003 -0.00387,-0.006 -0.00581,-0.01 -0.00194,-0.003 -0.00389,-0.006 -0.00585,-0.009 -0.00196,-0.003 -0.00392,-0.006 -0.00589,-0.009 -0.00197,-0.003 -0.00394,-0.006 -0.00592,-0.009 -0.00198,-0.003 -0.00396,-0.006 -0.00596,-0.009 -0.00199,-0.003 -0.00399,-0.006 -0.00599,-0.009 -0.002,-0.003 -0.00401,-0.006 -0.00602,-0.008 -0.00201,-0.003 -0.00403,-0.006 -0.00605,-0.008 -0.00202,-0.003 -0.00405,-0.005 -0.00608,-0.008 -0.00203,-0.003 -0.00406,-0.005 -0.0061,-0.008 -0.00204,-0.003 -0.00408,-0.005 -0.00613,-0.008 -0.00205,-0.003 -0.0041,-0.005 -0.00615,-0.007 -0.00205,-0.002 -0.00411,-0.005 -0.00618,-0.007 -0.00206,-0.002 -0.00413,-0.005 -0.0062,-0.007 -0.00207,-0.002 -0.00414,-0.005 -0.00622,-0.007 -0.00208,-0.002 -0.00416,-0.005 -0.00624,-0.007 -0.00208,-0.002 -0.00417,-0.004 -0.00626,-0.007 -0.00209,-0.002 -0.00418,-0.004 -0.00627,-0.006 -0.00209,-0.002 -0.00419,-0.004 -0.00629,-0.006 -0.0021,-0.002 -0.0042,-0.004 -0.0063,-0.006 -0.0021,-0.002 -0.00421,-0.004 -0.00632,-0.006 -0.00211,-0.002 -0.00422,-0.004 -0.00633,-0.006 -0.00211,-0.002 -0.00422,-0.004 -0.00634,-0.005 -0.00211,-0.002 -0.00423,-0.004 -0.00635,-0.005 -0.00212,-0.002 -0.00424,-0.003 -0.00636,-0.005 -0.00212,-0.002 -0.00424,-0.003 -0.00636,-0.005 -0.00212,-0.002 -0.00424,-0.003 -0.00637,-0.005 -0.00212,-0.002 -0.00425,-0.003 -0.00637,-0.005 -0.00212,-0.001 -0.00425,-0.003 -0.00638,-0.004 -0.00213,-10e-4 -0.00425,-0.003 -0.00638,-0.004 -0.00213,-10e-4 -0.00425,-0.003 -0.00638,-0.004 -0.00213,-0.001 -0.00425,-0.003 -0.00638,-0.004 -0.00213,-10e-4 -0.00425,-0.002 -0.00638,-0.004 -0.00213,-10e-4 -0.00425,-0.002 -0.00637,-0.003 -0.00212,-10e-4 -0.00425,-0.002 -0.00637,-0.003 -0.00212,-10e-4 -0.00424,-0.002 -0.00637,-0.003 -0.00212,-0.001 -0.00424,-0.002 -0.00636,-0.003 -0.00212,-9.4e-4 -0.00424,-0.002 -0.00635,-0.003 -0.00212,-8.8e-4 -0.00423,-0.002 -0.00635,-0.003 -0.00211,-8.2e-4 -0.00423,-0.002 -0.00634,-0.002 -0.00211,-7.6e-4 -0.00422,-0.002 -0.00633,-0.002 -0.00211,-7.1e-4 -0.00421,-10e-4 -0.00631,-0.002 -0.0021,-6.5e-4 -0.0042,-10e-4 -0.0063,-0.002 -0.0021,-5.9e-4 -0.00419,-0.001 -0.00629,-0.002 -0.00209,-5.3e-4 -0.00419,-0.001 -0.00627,-0.002 -0.00209,-4.8e-4 -0.00418,-9.3e-4 -0.00626,-10e-4 -0.00208,-4.2e-4 -0.00416,-8.2e-4 -0.00624,-0.001 -0.00208,-3.7e-4 -0.00415,-7.1e-4 -0.00623,-10e-4 -0.00207,-3.2e-4 -0.00414,-6.1e-4 -0.00621,-8.7e-4 -0.00207,-2.6e-4 -0.00413,-5e-4 -0.00619,-7e-4 -0.00206,-2.1e-4 -0.00412,-4e-4 -0.00617,-5.5e-4 -0.00205,-1.5e-4 -0.0041,-2.8e-4 -0.00615,-3.9e-4 -0.00205,-10e-5 -0.00409,-1.7e-4 -0.00612,-2.2e-4 -0.00204,-5e-5 -0.00407,-7e-5 -0.0061,-7e-5 -0.00203,0 -0.00406,3e-5 -0.00608,9e-5 -0.00202,5e-5 -0.00404,1.4e-4 -0.00605,2.4e-4"
       title="(0.5*(1+sqrt(5)))**(-2*x/pi)"
       id="path1019"
       inkscape:connector-curvature="0" />
    <rect
       y="289.28284"
       x="2.4214511"
       height="1.5158678"
       width="1.5158678"
       id="rect1050"
       style="fill:none;fill-opacity:1;stroke:none;stroke-width:2.53400016;stroke-linecap:round;stroke-linejoin:round;stroke-miterlimit:4;stroke-dasharray:none;stroke-opacity:1" />
    <g
       id="g1462"
       transform="translate(0.1492339,-0.46355667)">
      <path
         id="path6532"
         title="(0.5*(1+sqrt(5)))**(-2*x/pi)"
         d="m 8.2170073,294.02565 c 0.027315,-0.43031 -0.1243659,-0.83531 -0.4041019,-1.18847 -0.279736,-0.35315 -0.6870815,-0.65421 -1.1614104,-0.89093 -0.4743286,-0.23672 -1.0153611,-0.40888 -1.5654358,-0.51721 -0.5500751,-0.10833 -1.1088101,-0.15271 -1.6300545,-0.14384 -0.5212444,0.009 -1.0045968,0.071 -1.4202268,0.16968 -0.415631,0.0987 -0.7631873,0.2338 -1.0303019,0.38659 -0.26711498,0.1528 -0.45353036,0.32317 -0.56244176,0.49372 -0.1089114,0.17054 -0.14017563,0.34114 -0.10858938,0.49828 0.0315862,0.15715 0.12605372,0.30071 0.26193821,0.42234 0.13588483,0.12164 0.31312521,0.22124 0.50849363,0.29584 0.1953686,0.0746 0.4087421,0.1241 0.6192268,0.15018 0.2104845,0.0261 0.4179289,0.0287 0.6065889,0.0129 0.1886603,-0.0158 0.3583871,-0.0501 0.4999581,-0.0961 0.1415708,-0.0459 0.2548612,-0.10347 0.3371941,-0.16548 0.082333,-0.062 0.1336252,-0.12848 0.1567194,-0.19312 0.023095,-0.0646 0.017953,-0.12743 -0.00874,-0.1838 -0.026692,-0.0564 -0.074931,-0.10628 -0.1361084,-0.14722 -0.061177,-0.0409 -0.1352588,-0.0729 -0.2135111,-0.0953 -0.078253,-0.0224 -0.1606236,-0.0352 -0.2396772,-0.0396 -0.079054,-0.004 -0.1547313,-3.3e-4 -0.2217938,0.01 -0.067062,0.0103 -0.1254548,0.0269 -0.1724834,0.047 -0.047029,0.0201 -0.082652,0.0438 -0.1065851,0.0683 -0.023934,0.0246 -0.036152,0.05 -0.038293,0.074 -0.00214,0.0241 0.0058,0.0468 0.020964,0.0666 0.01516,0.0199 0.037529,0.0368 0.063734,0.0502 0.026205,0.0134 0.05623,0.0232 0.086849,0.0295 0.030619,0.006 0.061811,0.009 0.090979,0.009 0.029168,-3.3e-4 0.056289,-0.004 0.079674,-0.009 0.023384,-0.005 0.043011,-0.0128 0.058162,-0.0213 0.015152,-0.008 0.025814,-0.0179 0.032141,-0.0274 0.00633,-0.01 0.00831,-0.019 0.00676,-0.0278 -0.00155,-0.009 -0.00664,-0.0169 -0.01407,-0.0237 -0.00743,-0.007 -0.017209,-0.0125 -0.028034,-0.0167 -0.010825,-0.004 -0.022692,-0.007 -0.034429,-0.009 -0.011737,-0.002 -0.023337,-0.002 -0.033912,-9.3e-4 -0.010575,8.2e-4 -0.020115,0.003 -0.028097,0.005 -0.00798,0.003 -0.014398,0.006 -0.019089,0.009 -0.00469,0.003 -0.00765,0.007 -0.00903,0.0107 -0.00138,0.004 -0.00118,0.007 2.289e-4,0.0103 0.00142,0.003 0.00404,0.006 0.00741,0.008 0.00336,0.002 0.00747,0.004 0.011811,0.005 0.00435,10e-4 0.00894,0.002 0.013352,0.002 0.00441,2.6e-4 0.00865,6e-5 0.01242,-4.8e-4 0.00377,-5.6e-4 0.00705,-0.001 0.00971,-0.003 0.00266,-10e-4 0.00468,-0.002 0.00606,-0.004 0.00138,-0.001 0.00209,-0.003 0.00224,-0.004 1.635e-4,-10e-4 -2.615e-4,-0.003 -0.00108,-0.004 -8.238e-4,-10e-4 -0.00205,-0.002 -0.0035,-0.003 -0.00145,-7.6e-4 -0.00312,-10e-4 -0.00482,-0.002 -0.00171,-3.5e-4 -0.00345,-5.2e-4 -0.00508,-5.1e-4 -0.00163,10e-6 -0.00315,2e-4 -0.00447,4.7e-4 -0.00131,3e-4 -0.00243,7.1e-4 -0.00328,0.001 -8.631e-4,4.7e-4 -0.00147,9.9e-4 -0.00183,0.002 -3.858e-4,5.3e-4 -4.969e-4,10e-4 -4.413e-4,0.002 6.53e-5,4.9e-4 3.334e-4,9.5e-4 7.584e-4,10e-4 3.858e-4,3.8e-4 9.448e-4,7e-4 0.00155,9.4e-4 6.016e-4,2.3e-4 0.00126,4e-4 0.00191,4.9e-4 6.506e-4,1e-4 0.0013,1e-4 0.0019,7e-5 5.918e-4,-4e-5 0.00113,-1.4e-4 0.00158,-3e-4 4.413e-4,-1.3e-4 8.107e-4,-3.3e-4 0.00108,-5e-4 2.615e-4,-2e-4 4.413e-4,-4e-4 4.969e-4,-6e-4 6.54e-5,-2e-4 6.54e-5,-4e-4 1.3e-6,-5.8e-4 -6.54e-5,-1.6e-4 -2.289e-4,-3.3e-4 -3.858e-4,-4.6e-4 -1.634e-4,-1.3e-4 -3.857e-4,-2.3e-4 -6.506e-4,-2.9e-4 -2.288e-4,-7e-5 -4.969e-4,-1.3e-4 -7.453e-4,-1.3e-4 -2.289e-4,-2e-5 -4.969e-4,-1e-5 -6.964e-4,2e-5 -2.288e-4,3e-5 -3.857e-4,6e-5 -5.525e-4,1.3e-4 -1.634e-4,6e-5 -2.615e-4,1.3e-4 -3.334e-4,1.9e-4 -6.54e-5,7e-5 -9.81e-5,1.7e-4 -9.81e-5,2.3e-4 -1.05e-5,7e-5 1.11e-5,1.7e-4 6.54e-5,2e-4 3.27e-5,7e-5 9.81e-5,1.3e-4 1.635e-4,1.6e-4 6.53e-5,4e-5 1.634e-4,7e-5 2.615e-4,10e-5 9.81e-5,2e-5 1.634e-4,3e-5 2.615e-4,3e-5 9.81e-5,0 1.635e-4,-1e-5 2.616e-4,-2e-5 6.53e-5,-2e-5 9.8e-5,-4e-5 1.634e-4,-7e-5 3.27e-5,-2e-5 9.81e-5,-6e-5 9.81e-5,-1e-4 2.16e-5,-3e-5 2.78e-5,-6e-5 2.52e-5,-9e-5 -3.3e-6,-3e-5 -1.8e-5,-7e-5 -3.27e-5,-7e-5 -2.19e-5,-2e-5 -6.54e-5,-3e-5 -9.81e-5,-7e-5 -3.27e-5,-10e-6 -6.54e-5,-2e-5 -9.81e-5,-2e-5 -3.27e-5,-10e-6 -6.54e-5,-10e-6 -9.81e-5,-10e-6 -3.26e-5,0 -6.53e-5,10e-6 -9.8e-5,2e-5 -2.52e-5,10e-6 -3.27e-5,2e-5 -6.54e-5,3e-5 -1.47e-5,10e-6 -2.49e-5,2e-5 -3.07e-5,3e-5 -4.9e-6,1e-5 -4.6e-6,2e-5 -7e-7,3e-5 3.9e-6,10e-6 1.18e-5,2e-5 2.16e-5,3e-5 1.04e-5,0 2.32e-5,10e-6 3.27e-5,10e-6 1.34e-5,1e-5 2.74e-5,1e-5 3.27e-5,1e-5 1.37e-5,0 2.71e-5,0 3.27e-5,0 1.21e-5,0 2.28e-5,0 3.07e-5,-1e-5 8.5e-6,0 1.5e-5,-10e-6 1.93e-5,-10e-6 4.6e-6,0 7.2e-6,-1e-5 7.8e-6,-1e-5 7e-7,-10e-6 -6e-7,-10e-6 -2.6e-6,-10e-6 -2.3e-6,-10e-6 -6.2e-6,-10e-6 -1.05e-5,-10e-6 -4.5e-6,-1e-5 -9.4e-6,-1e-5 -1.5e-5,-1e-5 -4.9e-6,0 -1.05e-5,0 -1.54e-5,0 -5.5e-6,0 -1.01e-5,0 -1.43e-5,0 -4e-6,0 -7.9e-6,0 -1.05e-5,0 -2.9e-6,1e-5 -4.6e-6,1e-5 -6.2e-6,1e-5 -1e-6,0 -1.7e-6,0 -1e-6,0 0,10e-6 3e-7,10e-6 2e-6,10e-6 1.3e-6,0 2.9e-6,0 4.5e-6,0 1.7e-6,0 4e-6,0 6.3e-6,0 1.6e-6,0 3.5e-6,0 5.8e-6,0 1.7e-6,0 3.3e-6,0 4.9e-6,0 1.3e-6,0 2.3e-6,0 3.3e-6,0 7e-7,0 1.3e-6,0 2e-6,0 0,0 0,0 0,0 0,0 -7e-7,0 -1.3e-6,0 -7e-7,-10e-6 -1e-6,-10e-6 -2e-6,-10e-6 -7e-7,0 -1.3e-6,0 -2.3e-6,0 -6e-7,0 -1.6e-6,0 -2.3e-6,0 -6e-7,0 -1e-6,0 -1.6e-6,0 -7e-7,0 -7e-7,0 -1.3e-6,10e-6 0,0 -3e-7,0 -3e-7,0 0,0 0,0 0,0 3e-7,0 3e-7,0 9e-7,0 0,0 0,0 7e-7,0 6e-7,0 6e-7,0 10e-7,0 0,0 6e-7,0 6e-7,0 0,0 7e-7,0 7e-7,0 0,0 3e-7,0 3e-7,0 0,0 0,0 0,0 0,0 0,0 0,0 0,0 -3e-7,0 -3e-7,0 0,0 0,0 0,0 -7e-7,0 -7e-7,0 -7e-7,0 0,0 0,0 0,0 -6e-7,0 -6e-7,0 -6e-7,0 0,0 0,0 0,0 0,0 0,0 0,0 0,0 0,0 0,0 0,0 0,0 0,0 0,0 0,0 6e-7,0 0,0 0,0 0,0 0,0 0,0 0,0 0,0 0,0 0,0 0,0 0,0 0,0 0,0 0,0 0,0 0,0 0,0 0,0 0,0 0,0 0,0 0,0 0,0 0,0 0,0 0,0 0,0 0,0 0,0 0,0 0,0 0,0 0,0 0,0 0,0 0,0 0,0 0,0 0,0 0,0 0,0 0,0 0,0 0,0 0,0 0,0 0,0 0,0 0,0 0,0 0,0 0,0 0,0 0,0 0,0 0,0 0,0 0,0 0,0 0,0 0,0 0,0 0,0 0,0 0,0 0,0 0,0 0,0 0,0 0,0 0,0 0,0 0,0 0,0 0,0 0,0 0,0 0,0 0,0 0,0 0,0 0,0 0,0 0,0 0,0 0,0 0,0 0,0 0,0 0,0 0,0 0,0 0,0 0,0 0,0 0,0 0,0 0,0 0,0 0,0 0,0 0,0 0,0 0,0 0,0 0,0 0,0 0,0 0,0 0,0 0,0 0,0 0,0 0,0 0,0 0,0 0,0 0,0 0,0 0,0 0,0 0,0 0,0 0,0 0,0 0,0 0,0 0,0 0,0 0,0 0,0 0,0 0,0 0,0 0,0 0,0 0,0 0,0 0,0 0,0 0,0 0,0 0,0 0,0 0,0 0,0 0,0 0,0 0,0 0,0 0,0 0,0 0,0 0,0 0,0 0,0 0,0 0,0 0,0 0,0 0,0 0,0 0,0 0,0 0,0 0,0 0,0 0,0 0,0 0,0 0,0 0,0 0,0 0,0 0,0 0,0 0,0 0,0 0,0 0,0 0,0 0,0 0,0 0,0 0,0 0,0 0,0 0,0 0,0 0,0 0,0 0,0 0,0 0,0 0,0 0,0 0,0 0,0 0,0 0,0 0,0 0,0 0,0 0,0 0,0 0,0 0,0 0,0 0,0 0,0 0,0 0,0 0,0 0,0 0,0 0,0 0,0 0,0 0,0 0,0 0,0 0,0 0,0 0,0 0,0 0,0 0,0 0,0 0,0 0,0 0,0 0,0 0,0 0,0 0,0 0,0 0,0 0,0 0,0 0,0 0,0 0,0 0,0 0,0 0,0 0,0 0,0 0,0 0,0 0,0 0,0 0,0 0,0 0,0 0,0 0,0 0,0 0,0 0,0 0,0 0,0 0,0 0,0 0,0 0,0 0,0 0,0 0,0 0,0 0,0 0,0 0,0 0,0 0,0 0,0 0,0 0,0 0,0 0,0 0,0 0,0 0,0 0,0 0,0 0,0 0,0 0,0 0,0 0,0 0,0 0,0 0,0 0,0 0,0 0,0 0,0 0,0 0,0 0,0 0,0 0,0 0,0 0,0 0,0 0,0 0,0 0,0 0,0 0,0 0,0 0,0 0,0 0,0 0,0 0,0 0,0 0,0 0,0 0,0 0,0 0,0 0,0 0,0 0,0 0,0 0,0 0,0 0,0 0,0 0,0 0,0 0,0 0,0 0,0 0,0 0,0 0,0 0,0 0,0 0,0 0,0 0,0 0,0 0,0 0,0"
         style="fill:none;fill-opacity:1;stroke:#000000;stroke-width:0.083;stroke-miterlimit:4;stroke-dasharray:none;stroke-opacity:1"
         inkscape:connector-curvature="0" />
      <circle
         style="fill:#000000;fill-opacity:1;stroke:#000000;stroke-width:0.08284125;stroke-linejoin:round;stroke-miterlimit:4;stroke-dasharray:none;stroke-opacity:1"
         id="path6550"
         cx="2.3577018"
         cy="293.12695"
         r="0.34758148" />
      <path
         inkscape:connector-curvature="0"
         style="fill:none;fill-opacity:0.02395211;stroke:#000000;stroke-width:0.08202901;stroke-linecap:round;stroke-linejoin:round;stroke-miterlimit:4;stroke-dasharray:none;stroke-opacity:1"
         d="m -0.03896269,292.11041 c 4.8594e-4,0.006 9.7997e-4,0.011 0.001427,0.0185 6.0394e-4,0.006 0.0012191,0.0109 0.0017997,0.0187 7.2425e-4,0.006 0.0014722,0.011 0.0021633,0.0186 8.441e-4,0.006 0.0015499,0.0128 0.0025241,0.0188 9.6535e-4,0.006 0.0018009,0.0128 0.0029223,0.0188 0.0010858,0.006 0.002038,0.0127 0.0032858,0.0187 0.0012083,0.006 0.002289,0.0127 0.0036634,0.0188 0.0013299,0.006 0.0025498,0.0127 0.0040302,0.0191 0.0014624,0.006 0.0027978,0.0128 0.0044078,0.0192 0.0015868,0.006 0.0030497,0.0127 0.0047684,0.0191 0.0016945,0.006 0.00328976,0.0126 0.00513108,0.0192 0.001819,0.006 0.00354184,0.0127 0.00551879,0.0196 0.00196127,0.006 0.00380949,0.0127 0.00589332,0.0196 0.00208686,0.006 0.00406833,0.0126 0.00627702,0.0199 0.0022123,0.006 0.0043184,0.0126 0.0066802,0.0199 0.0021214,0.007 0.0045704,0.0127 0.00704,0.0201 0.0022448,0.007 0.004846,0.0125 0.0074345,0.0204 0.0023704,0.007 0.005097,0.0125 0.0078121,0.0204 0.0024969,0.007 0.0053528,0.0124 0.0081975,0.0206 0.0026402,0.007 0.0057736,0.0143 0.0086099,0.0209 0.0027646,0.007 0.0060294,0.0142 0.0089784,0.0209 0.0028892,0.007 0.0062972,0.0142 0.0093718,0.0209 0.0030147,0.007 0.0065471,0.0142 0.009777,0.0213 0.0031569,0.007 0.0068249,0.0142 0.01017592,0.0212 0.0032824,0.007 0.0070955,0.0141 0.01054726,0.0213 0.003407,0.007 0.007368,0.014 0.010967,0.0214 0.003613,0.006 0.007623,0.0141 0.0113646,0.0216 0.003739,0.006 0.007891,0.0141 0.0117688,0.0215 0.003882,0.006 0.00802,0.0159 0.0121701,0.0218 0.004006,0.006 0.008288,0.016 0.0125648,0.0217 0.004147,0.006 0.008559,0.0161 0.0129857,0.0222 0.004274,0.006 0.008833,0.0159 0.0133786,0.0222 0.004399,0.006 0.009102,0.0159 0.0137989,0.0222 0.004542,0.006 0.009378,0.0158 0.0141925,0.0224 0.004667,0.006 0.009647,0.0159 0.0146034,0.0224 0.004809,0.006 0.009916,0.0159 0.0150076,0.0223 0.004934,0.006 0.0101894,0.0158 0.0154207,0.0227 0.005111,0.007 0.0104577,0.0158 0.0158231,0.0227 0.005253,0.007 0.0107293,0.0159 0.0162339,0.0227 0.005377,0.007 0.0110047,0.0157 0.0166463,0.0229 0.005677,0.009 0.0112729,0.0157 0.0170595,0.0229 0.005803,0.009 0.0115472,0.0156 0.0174788,0.0232 0.005945,0.009 0.0118182,0.0157 0.0178707,0.0233 0.006069,0.009 0.0120923,0.0156 0.0182806,0.0233 0.006212,0.009 0.0123602,0.0156 0.0187037,0.0233 0.006338,0.009 0.0126282,0.0156 0.0191168,0.0234 0.006481,0.009 0.0129257,0.0155 0.0195205,0.0234 0.006606,0.009 0.0131935,0.0156 0.0199395,0.0237 0.006749,0.009 0.0134657,0.0156 0.0203477,0.0237 0.006892,0.009 0.0137388,0.0156 0.0207566,0.0237 0.007017,0.009 0.0140064,0.0156 0.021184,0.0237 0.00716,0.009 0.014279,0.0156 0.021584,0.0238 0.007284,0.009 0.0145486,0.0155 0.0219972,0.0237 0.007427,0.009 0.0148216,0.0155 0.0224166,0.0238 0.007552,0.009 0.0150959,0.0154 0.0228248,0.0237 0.007696,0.009 0.0153619,0.0155 0.02325,0.0239 0.00782,0.009 0.015636,0.0154 0.0236501,0.024 0.007945,0.009 0.0159092,0.0154 0.0240578,0.0239 0.008088,0.009 0.016175,0.0155 0.0244736,0.0241 0.008211,0.009 0.0164313,0.0154 0.0248764,0.024 0.008352,0.009 0.0167013,0.0153 0.025282,0.024 0.008473,0.009 0.0171208,0.017 0.025685,0.0241 0.008601,0.009 0.017381,0.017 0.0260978,0.0241 0.00875,0.009 0.0176495,0.0169 0.0265044,0.0241 0.008872,0.009 0.0179141,0.017 0.0268991,0.0242 0.009,0.009 0.018173,0.017 0.0272952,0.0241 0.009139,0.009 0.0184416,0.0169 0.0277112,0.0241 0.009267,0.009 0.0187004,0.0168 0.0281102,0.024 0.009396,0.009 0.0189605,0.017 0.0284956,0.024 0.009514,0.009 0.0192222,0.0169 0.0289008,0.0241 0.00966,0.008 0.019479,0.0169 0.029285,0.0243 0.00978,0.009 0.019737,0.0168 0.029685,0.024 0.00993,0.008 0.019992,0.0169 0.030092,0.0241 0.010062,0.008 0.020244,0.0169 0.030469,0.0241 0.010177,0.008 0.020503,0.0167 0.030861,0.0239 0.010369,0.007 0.020751,0.0167 0.031255,0.0241 0.010496,0.007 0.021003,0.0168 0.031632,0.024 0.010601,0.007 0.021253,0.0167 0.032012,0.0238 0.010725,0.007 0.021498,0.0167 0.032405,0.0239 0.01085,0.007 0.021748,0.0166 0.032772,0.0239 0.010973,0.007 0.021992,0.0167 0.033152,0.0237 0.0111,0.007 0.022231,0.0167 0.033544,0.0237 0.011205,0.007 0.022475,0.0165 0.033904,0.0237 0.011325,0.007 0.022712,0.0165 0.034264,0.0236 0.011432,0.007 0.023111,0.0147 0.034647,0.0237 0.011561,0.007 0.023341,0.0147 0.035016,0.0233 0.011668,0.007 0.023574,0.0147 0.035362,0.0235 0.011796,0.007 0.023809,0.0147 0.035743,0.0233 0.011904,0.007 0.024038,0.0147 0.036082,0.0232 0.012013,0.007 0.024263,0.0147 0.036452,0.0231 0.01214,0.007 0.024494,0.0146 0.036791,0.0232 0.012248,0.007 0.024714,0.0146 0.03715,0.023 0.012356,0.007 0.024933,0.0146 0.037499,0.0228 0.012447,0.007 0.025159,0.0146 0.037854,0.0227 0.012555,0.007 0.02537,0.0146 0.038181,0.0226 0.012663,0.007 0.025584,0.0146 0.038512,0.0225 0.012925,0.005 0.025798,0.0145 0.03884,0.0223 0.013015,0.005 0.026008,0.0144 0.039185,0.0222 0.013106,0.005 0.026214,0.0145 0.039513,0.022 0.013214,0.005 0.026417,0.0145 0.039816,0.022 0.013322,0.005 0.02662,0.0144 0.040144,0.022 0.013412,0.005 0.026819,0.0144 0.04046,0.0219 0.013521,0.005 0.027012,0.0144 0.04075,0.0219 0.013612,0.005 0.027212,0.0144 0.041041,0.0218 0.013702,0.005 0.027547,0.0125 0.04134,0.0219 0.01381,0.005 0.027732,0.0125 0.041627,0.0219 0.013903,0.005 0.02792,0.0124 0.041904,0.0219 0.013991,0.005 0.028255,0.0143 0.042339,0.0201 0.014083,0.005 0.028434,0.0143 0.042608,0.0201 0.014172,0.005 0.028612,0.0142 0.04287,0.0201 0.014246,0.005 0.028785,0.0142 0.043128,0.0201 0.014318,0.005 0.028953,0.0143 0.043399,0.0202 0.014409,0.005 0.029118,0.0143 0.043651,0.0202 0.01448,0.005 0.029289,0.0143 0.043899,0.0201 0.014571,0.005 0.02945,0.0143 0.044132,0.0201 0.014644,0.005 0.029604,0.0143 0.044363,0.0201 0.014735,0.005 0.029755,0.0143 0.04476,0.0185 0.014806,0.005 0.029908,0.0142 0.044983,0.0186 0.014878,0.005 0.030202,0.0122 0.04521,0.0183 0.014951,0.005 0.030347,0.0124 0.045411,0.0185 0.015024,0.005 0.030487,0.0123 0.045633,0.0185 0.015095,0.005 0.030629,0.0122 0.045853,0.0186 0.015152,0.005 0.03076,0.0122 0.046041,0.0187 0.015221,0.005 0.030886,0.0122 0.046236,0.0186 0.01552,0.005 0.031009,0.0122 0.046575,0.0168 0.015592,0.005 0.031133,0.0122 0.046763,0.0168 0.015647,0.005 0.031248,0.0122 0.046944,0.0169 0.015701,0.005 0.031372,0.0122 0.047128,0.0168 0.015755,0.005 0.031481,0.0122 0.047292,0.0168 0.01581,0.005 0.031762,0.01 0.047447,0.0168 0.015864,0.005 0.031862,0.01 0.047595,0.0168 0.015918,0.005 0.03196,0.01 0.047895,0.0149 0.015955,0.005 0.032052,0.01 0.04805,0.0151 0.016008,0.005 0.032142,0.01 0.048183,0.0151 0.016045,0.005 0.032225,0.01 0.048307,0.0151 0.016099,0.005 0.032306,0.01 0.048425,0.0151 0.016136,0.005 0.032362,0.011 0.048541,0.0151 0.016171,0.005 0.032433,0.011 0.048741,0.0129 0.01619,0.005 0.032503,0.011 0.048843,0.0131 0.016226,0.005 0.032747,0.008 0.048934,0.0131 0.016244,0.005 0.032808,0.008 0.049028,0.0129 0.01628,0.005 0.03286,0.008 0.0491,0.0131 0.016299,0.005 0.032914,0.008 0.049183,0.0129 0.016334,0.005 0.032958,0.008 0.049396,0.0113 0.016506,0.003 0.033001,0.008 0.049456,0.0113 0.016524,0.003 0.033038,0.008 0.04951,0.0113 0.016542,0.003 0.033068,0.008 0.049554,0.0113 0.016559,0.003 0.033208,0.006 0.049595,0.0113 0.016559,0.003 0.033231,0.006 0.049628,0.0113 0.016578,0.003 0.03325,0.006 0.049817,0.009 0.016578,0.003 0.033262,0.006 0.049837,0.009 0.016596,0.003 0.033271,0.006 0.049849,0.009 0.016597,0.003 0.033275,0.006 0.049848,0.009 0.016632,0.003 0.033275,0.006 0.04985,0.009 0.016632,0.003 0.033269,0.006 0.050011,0.007 0.016632,0.003 0.033398,0.004 0.049994,0.007 0.016668,0.003 0.033381,0.004 0.049967,0.007 0.016668,0.003 0.033361,0.004 0.049934,0.007 0.016687,0.003 0.033333,0.004 0.049896,0.007 0.016687,0.003 0.03332,0.004 0.049959,0.005 0.016687,0.003 0.033327,0.004 0.049904,0.005 0.016687,0.003 0.033327,0.004 0.049853,0.005 0.016687,0.003 0.033244,0.003 0.049841,0.005 0.016687,0.003 0.033233,0.003 0.049828,0.005 0.016687,0.003 0.033218,0.003 0.049803,0.005 0.016668,0.003 0.0332,0.003 0.049773,0.005 0.016496,4.4e-4 0.033174,0.003 0.049593,0.003 0.016478,4.5e-4 0.033147,0.003 0.04955,0.003 0.016458,4.5e-4 0.033108,0.003 0.049493,0.003 0.016443,4.5e-4 0.032886,8.9e-4 0.049432,0.003 0.016422,4.6e-4 0.032841,9.1e-4 0.049264,0.002 0.016403,4.4e-4 0.032792,9e-4 0.049128,0.002 0.016367,4.6e-4 0.032733,9.1e-4 0.04898,0.002 0.016348,4.6e-4 0.032657,9.1e-4 0.048955,3.8e-4 0.016313,4.6e-4 0.032545,9.1e-4 0.048789,3.9e-4 0.016181,4e-5 0.032429,9.1e-4 0.048616,3.8e-4 0.016145,5e-5 0.032488,-0.001 0.048431,3.9e-4 0.016107,5e-5 0.03236,-10e-4 0.048371,-0.002 0.016068,3e-5 0.032229,-10e-4 0.04817,-0.002 0.015997,5e-5 0.03209,-10e-4 0.047961,-0.002 0.015991,-6.9e-4 0.031947,-0.001 0.047744,-0.002 0.015916,-6.9e-4 0.031795,-0.001 0.047518,-0.002 0.015821,-7e-4 0.031563,-0.002 0.04748,-0.003 0.015745,-7e-4 0.031562,-0.003 0.047229,-0.003 0.015655,-6.8e-4 0.031393,-0.003 0.046975,-0.003 0.015581,-7e-4 0.031217,-0.003 0.046708,-0.003 0.015627,-0.002 0.031041,-0.003 0.046513,-0.006 0.015536,-0.002 0.030853,-0.003 0.046238,-0.006 0.015445,-0.002 0.030658,-0.003 0.045954,-0.006 0.015322,-0.003 0.030615,-0.004 0.04566,-0.006 0.015232,-0.003 0.030417,-0.004 0.045491,-0.007 0.015124,-0.003 0.030211,-0.004 0.045183,-0.007 0.015015,-0.003 0.029998,-0.004 0.044861,-0.007 0.014906,-0.003 0.029784,-0.004 0.044525,-0.007 0.014797,-0.003 0.029562,-0.004 0.044337,-0.01 0.014671,-0.003 0.029469,-0.006 0.043981,-0.01 0.014561,-0.003 0.029234,-0.006 0.043627,-0.01 0.014436,-0.003 0.028995,-0.006 0.043255,-0.01 0.014307,-0.003 0.028731,-0.005 0.043094,-0.0102 0.014253,-0.006 0.028479,-0.005 0.042712,-0.0102 0.014128,-0.006 0.028222,-0.005 0.042319,-0.0103 0.014001,-0.006 0.02803,-0.008 0.04191,-0.0102 0.013856,-0.006 0.027757,-0.008 0.04164,-0.0124 0.013729,-0.006 0.027474,-0.008 0.041219,-0.0122 0.013585,-0.006 0.027195,-0.008 0.04079,-0.0122 0.013442,-0.006 0.026909,-0.008 0.040354,-0.0122 0.013296,-0.006 0.026606,-0.008 0.040037,-0.0145 0.013152,-0.006 0.026437,-0.0111 0.039434,-0.0162 0.013006,-0.006 0.026127,-0.011 0.039028,-0.016 0.012842,-0.006 0.025815,-0.0109 0.038616,-0.0161 0.012831,-0.008 0.025494,-0.0108 0.038221,-0.016 0.012669,-0.008 0.025169,-0.0109 0.037637,-0.0179 0.012505,-0.008 0.024834,-0.0108 0.037232,-0.0178 0.012324,-0.008 0.024624,-0.013 0.036808,-0.0178 0.01218,-0.008 0.024284,-0.0131 0.036353,-0.0177 0.011999,-0.008 0.02393,-0.013 0.035762,-0.0196 0.011819,-0.008 0.02358,-0.013 0.035294,-0.0195 0.011654,-0.008 0.023215,-0.013 0.034836,-0.0196 0.011455,-0.008 0.022846,-0.0129 0.034229,-0.0212 0.011275,-0.008 0.022634,-0.0148 0.033734,-0.0213 0.011094,-0.008 0.022257,-0.0148 0.033187,-0.0219 0.010912,-0.008 0.021869,-0.0147 0.032645,-0.0223 0.010926,-0.009 0.021486,-0.0147 0.032084,-0.0229 0.010744,-0.009 0.021086,-0.0147 0.031519,-0.0231 0.010527,-0.009 0.020686,-0.0146 0.03095,-0.0239 0.010329,-0.009 0.020427,-0.0164 0.030364,-0.0243 0.010089,-0.008 0.020009,-0.0163 0.029777,-0.0249 0.00988,-0.008 0.019592,-0.0163 0.029187,-0.0255 0.00967,-0.008 0.019232,-0.0163 0.028568,-0.026 0.00943,-0.007 0.01868,-0.0181 0.027965,-0.0265 0.00922,-0.007 0.018305,-0.0183 0.027325,-0.0269 0.009,-0.007 0.017909,-0.0181 0.026708,-0.0274 0.00876,-0.007 0.017541,-0.0181 0.026047,-0.028 0.00856,-0.007 0.017114,-0.0181 0.025415,-0.0284 0.00849,-0.009 0.016573,-0.0198 0.024737,-0.0289 0.00827,-0.009 0.016134,-0.0198 0.024085,-0.0297 0.00803,-0.009 0.015713,-0.0199 0.023403,-0.03 0.00781,-0.009 0.015263,-0.0204 0.022731,-0.0307 0.00758,-0.009 0.014821,-0.0208 0.02202,-0.0312 0.00733,-0.009 0.014345,-0.0209 0.021326,-0.0316 0.00708,-0.009 0.013877,-0.0214 0.020611,-0.032 0.00681,-0.009 0.0134,-0.0215 0.01991,-0.0325 0.00656,-0.009 0.0129,-0.0221 0.019163,-0.0331 0.00633,-0.009 0.012435,-0.0226 0.018438,-0.0339 0.00607,-0.009 0.011923,-0.0229 0.017707,-0.0341 0.00562,-0.0115 0.011413,-0.0231 0.016963,-0.0348 0.00552,-0.0133 0.010905,-0.0232 0.016192,-0.0352 0.00526,-0.0133 0.010397,-0.0237 0.01543,-0.0355 0.005,-0.0133 0.0099,-0.0241 0.014675,-0.0363"
         title="(0.5*(1+sqrt(5)))**(2*x/pi)"
         id="path1424" />
    </g>
  </g>
</svg>
