<?xml version="1.0" encoding="UTF-8" standalone="no"?>
<!-- Created with Inkscape (http://www.inkscape.org/) -->

<svg
   xmlns:osb="http://www.openswatchbook.org/uri/2009/osb"
   xmlns:dc="http://purl.org/dc/elements/1.1/"
   xmlns:cc="http://creativecommons.org/ns#"
   xmlns:rdf="http://www.w3.org/1999/02/22-rdf-syntax-ns#"
   xmlns:svg="http://www.w3.org/2000/svg"
   xmlns="http://www.w3.org/2000/svg"
   xmlns:sodipodi="http://sodipodi.sourceforge.net/DTD/sodipodi-0.dtd"
   xmlns:inkscape="http://www.inkscape.org/namespaces/inkscape"
   width="32"
   height="32"
   viewBox="0 0 8.4666667 8.4666667"
   version="1.1"
   id="svg8"
   inkscape:version="0.92.3 (2405546, 2018-03-11)"
   sodipodi:docname="logo_tmp.svg">
  <sodipodi:namedview
     inkscape:measure-end="488.462,515.385"
     inkscape:measure-start="-284.615,669.231"
     id="base"
     pagecolor="#ffffff"
     bordercolor="#666666"
     borderopacity="1.0"
     inkscape:pageopacity="0.0"
     inkscape:pageshadow="2"
     inkscape:zoom="13.439771"
     inkscape:cx="14.920638"
     inkscape:cy="16.059512"
     inkscape:document-units="mm"
     inkscape:current-layer="layer1"
     showgrid="false"
     inkscape:window-width="1366"
     inkscape:window-height="688"
     inkscape:window-x="0"
     inkscape:window-y="0"
     inkscape:window-maximized="1"
     units="px" />
  <defs
     id="defs2">
    <marker
       inkscape:stockid="RazorWire"
       id="RazorWire"
       refX="0"
       refY="0"
       orient="auto"
       style="overflow:visible"
       inkscape:isstock="true">
      <path
         id="path6900"
         transform="scale(0.8)"
         style="fill:#000000;fill-opacity:1;fill-rule:evenodd;stroke:#000000;stroke-width:0.10000001pt;stroke-opacity:1"
         d="m 0.02272727,-0.74009011 v 1.4375 L -7.7585227,3.0099099 H 10.678977 L 3.4914773,0.69740989 v -1.4375 L 10.741477,-2.8963401 H -7.7272727 Z"
         inkscape:connector-curvature="0" />
    </marker>
    <marker
       inkscape:stockid="Arrow1Lstart"
       orient="auto"
       refY="0"
       refX="0"
       id="marker6974"
       style="overflow:visible"
       inkscape:isstock="true">
      <path
         id="path6972"
         d="M 0,0 5,-5 -12.5,0 5,5 Z"
         style="fill:#000000;fill-opacity:1;fill-rule:evenodd;stroke:#000000;stroke-width:1.00000003pt;stroke-opacity:1"
         transform="matrix(0.8,0,0,0.8,10,0)"
         inkscape:connector-curvature="0" />
    </marker>
    <marker
       inkscape:stockid="Arrow2Lstart"
       orient="auto"
       refY="0"
       refX="0"
       id="Arrow2Lstart"
       style="overflow:visible"
       inkscape:isstock="true">
      <path
         id="path6686"
         style="fill:#000000;fill-opacity:1;fill-rule:evenodd;stroke:#000000;stroke-width:0.625;stroke-linejoin:round;stroke-opacity:1"
         d="M 8.7185878,4.0337352 -2.2072895,0.01601326 8.7185884,-4.0017078 c -1.7454984,2.3720609 -1.7354408,5.6174519 -6e-7,8.035443 z"
         transform="matrix(1.1,0,0,1.1,1.1,0)"
         inkscape:connector-curvature="0" />
    </marker>
    <marker
       inkscape:stockid="Arrow1Lend"
       orient="auto"
       refY="0"
       refX="0"
       id="Arrow1Lend"
       style="overflow:visible"
       inkscape:isstock="true">
      <path
         id="path6671"
         d="M 0,0 5,-5 -12.5,0 5,5 Z"
         style="fill:#000000;fill-opacity:1;fill-rule:evenodd;stroke:#000000;stroke-width:1.00000003pt;stroke-opacity:1"
         transform="matrix(-0.8,0,0,-0.8,-10,0)"
         inkscape:connector-curvature="0" />
    </marker>
    <marker
       inkscape:stockid="Arrow1Lstart"
       orient="auto"
       refY="0"
       refX="0"
       id="Arrow1Lstart"
       style="overflow:visible"
       inkscape:isstock="true">
      <path
         id="path6668"
         d="M 0,0 5,-5 -12.5,0 5,5 Z"
         style="fill:#000000;fill-opacity:1;fill-rule:evenodd;stroke:#000000;stroke-width:1.00000003pt;stroke-opacity:1"
         transform="matrix(0.8,0,0,0.8,10,0)"
         inkscape:connector-curvature="0" />
    </marker>
    <linearGradient
       id="linearGradient4623"
       osb:paint="solid">
      <stop
         style="stop-color:#000000;stop-opacity:1;"
         offset="0"
         id="stop4621" />
    </linearGradient>
  </defs>
  <metadata
     id="metadata5">
    <rdf:RDF>
      <cc:Work
         rdf:about="">
        <dc:format>image/svg+xml</dc:format>
        <dc:type
           rdf:resource="http://purl.org/dc/dcmitype/StillImage" />
        <dc:title></dc:title>
      </cc:Work>
    </rdf:RDF>
  </metadata>
  <g
     id="layer1"
     inkscape:groupmode="layer"
     inkscape:label="Layer 1"
     transform="translate(0,-288.53333)">
    <path
       style="fill:none;fill-opacity:1;stroke:#000000;stroke-width:11.29133797;stroke-linecap:round;stroke-linejoin:round;stroke-miterlimit:4;stroke-dasharray:none;stroke-opacity:1"
       d=""
       id="path7014"
       inkscape:connector-curvature="0"
       transform="scale(0.26458333)" />
    <path
       style="fill:none;fill-opacity:1;stroke:#000000;stroke-width:11.29133797;stroke-linecap:round;stroke-linejoin:round;stroke-miterlimit:4;stroke-dasharray:none;stroke-opacity:1"
       d=""
       id="path7020"
       inkscape:connector-curvature="0"
       transform="scale(0.26458333)" />
    <path
       style="fill:none;fill-opacity:1;stroke:#000000;stroke-width:11.29133797;stroke-linecap:round;stroke-linejoin:round;stroke-miterlimit:4;stroke-dasharray:none;stroke-opacity:1"
       d=""
       id="path7022"
       inkscape:connector-curvature="0"
       transform="scale(0.26458333)" />
    <g
       id="g4611"
       transform="matrix(0.03269189,0,0,0.03269189,0.944747,288.04374)">
      <rect
         y="17.134783"
         x="-26.30619"
         height="257.66446"
         width="257.66446"
         id="rect950"
         style="fill:#ffffff;fill-opacity:1;stroke:none;stroke-width:2.83829021;stroke-linecap:round;stroke-linejoin:round;stroke-miterlimit:4;stroke-dasharray:none;stroke-opacity:1" />
      <g
         transform="translate(-12.708496,2.5845915)"
         id="g922">
        <path
           inkscape:connector-curvature="0"
           style="fill:none;fill-opacity:1;stroke:#000000;stroke-width:2.53422999;stroke-miterlimit:4;stroke-dasharray:none;stroke-opacity:1"
           d="m 235.15695,180.39388 c 0.83552,-13.16257 -3.80418,-25.55118 -12.36092,-36.35367 -8.55674,-10.80249 -21.01688,-20.01143 -35.52595,-27.25236 -14.50906,-7.24092 -31.0585,-12.50706 -47.88453,-15.82079 -16.82604,-3.313725 -33.91698,-4.671099 -49.861132,-4.399839 -15.94415,0.271277 -30.729236,2.172359 -43.442786,5.190299 -12.71358,3.01793 -23.34485,7.1515 -31.51552,11.82538 -8.1706797,4.67389 -13.87286967,9.8852 -17.2043197,15.10195 -3.3314503,5.21673 -4.2877803,10.43521 -3.3216003,15.24195 0.96618,4.80675 3.8558103,9.19803 8.0123303,12.91869 4.15653,3.72067 9.5780697,6.7675 15.5541197,9.04921 5.97606,2.2817 12.50286,3.79603 18.9413,4.59381 6.43843,0.79776 12.78387,0.8778 18.55472,0.39343 5.77086,-0.48437 10.96257,-1.5333 15.29303,-2.93818 4.330456,-1.40488 7.795856,-3.165 10.314306,-5.06207 2.51846,-1.89705 4.08741,-3.9298 4.79383,-5.90715 0.70644,-1.97736 0.54915,-3.89787 -0.26731,-5.62217 -0.81647,-1.72431 -2.29205,-3.25102 -4.16337,-4.50324 -1.87133,-1.25223 -4.13738,-2.22885 -6.53101,-2.91387 -2.39364,-0.68501 -4.913256,-1.07769 -7.331396,-1.21199 -2.41815,-0.13431 -4.73302,-0.0101 -6.78437,0.30585 -2.05134,0.31573 -3.83749,0.82271 -5.27603,1.43828 -1.43855,0.61554 -2.5282,1.33936 -3.26029,2.09003 -0.73211,0.75067 -1.10584,1.5277 -1.17134,2.26373 -0.0656,0.73604 0.17755,1.43051 0.64126,2.03769 0.46373,0.60718 1.14797,1.12658 1.94955,1.5366 0.80158,0.41002 1.72,0.71029 2.65658,0.90144 0.9366,0.19116 1.89071,0.27298 2.78291,0.2633 0.8922,-0.01 1.72182,-0.11092 2.43712,-0.27534 0.71529,-0.16442 1.31565,-0.39196 1.77911,-0.65058 0.46348,-0.25862 0.78962,-0.54814 0.98315,-0.83879 0.19354,-0.29065 0.25423,-0.58221 0.20683,-0.85141 -0.0475,-0.2692 -0.203,-0.51582 -0.43037,-0.72537 -0.22735,-0.20954 -0.52641,-0.38183 -0.85753,-0.51152 -0.33112,-0.12968 -0.69411,-0.21664 -1.05314,-0.26348 -0.35903,-0.0469 -0.71384,-0.0535 -1.03731,-0.0284 -0.32346,0.0251 -0.6153,0.082 -0.85946,0.15906 -0.24417,0.0771 -0.44042,0.17435 -0.58391,0.27959 -0.14343,0.10524 -0.23404,0.2184 -0.27629,0.32876 -0.0422,0.11035 -0.0361,0.21784 0.007,0.31457 0.0433,0.0967 0.12366,0.18263 0.22667,0.25332 0.1029,0.0707 0.22835,0.1261 0.36128,0.16523 0.13297,0.0392 0.27335,0.062 0.40842,0.0703 0.13499,0.008 0.26473,0.002 0.3799,-0.0147 0.11523,-0.0169 0.21578,-0.0447 0.29709,-0.0786 0.0813,-0.0339 0.14327,-0.0741 0.18526,-0.11578 0.0421,-0.0417 0.064,-0.0851 0.0686,-0.12622 0.005,-0.0411 -0.008,-0.0801 -0.0331,-0.1142 -0.0252,-0.0341 -0.0627,-0.0634 -0.10695,-0.0866 -0.0443,-0.0232 -0.0953,-0.0403 -0.14733,-0.0513 -0.0522,-0.0109 -0.10542,-0.0159 -0.15526,-0.0157 -0.0498,2.4e-4 -0.0965,0.006 -0.13668,0.0145 -0.0402,0.009 -0.0742,0.0215 -0.10036,0.0358 -0.0264,0.0144 -0.0449,0.0304 -0.0561,0.0466 -0.0118,0.0162 -0.0152,0.0325 -0.0135,0.0476 0.002,0.015 0.0102,0.0289 0.0232,0.0407 0.0118,0.0118 0.0289,0.0215 0.0473,0.0289 0.0184,0.007 0.0385,0.0123 0.0585,0.015 0.0199,0.003 0.0399,0.003 0.058,0.002 0.0181,-10e-4 0.0345,-0.004 0.0483,-0.009 0.0135,-0.004 0.0248,-0.01 0.0331,-0.0154 0.008,-0.006 0.0135,-0.0122 0.0152,-0.0183 0.002,-0.006 0.002,-0.0122 4e-5,-0.0176 -0.002,-0.005 -0.007,-0.0103 -0.0118,-0.0142 -0.005,-0.004 -0.0118,-0.007 -0.0199,-0.009 -0.007,-0.002 -0.0152,-0.004 -0.0228,-0.004 -0.007,-5.1e-4 -0.0152,-2.1e-4 -0.0213,7e-4 -0.007,9.4e-4 -0.0118,0.002 -0.0169,0.004 -0.005,0.002 -0.008,0.004 -0.0102,0.006 -0.002,0.002 -0.003,0.005 -0.003,0.007 -3.2e-4,0.002 3.4e-4,0.005 0.002,0.006 10e-4,0.002 0.003,0.004 0.005,0.005 0.002,0.001 0.005,0.002 0.008,0.003 0.003,6.3e-4 0.005,9.4e-4 0.008,9.4e-4 0.003,1e-5 0.005,-2.8e-4 0.008,-7.7e-4 0.002,-4.8e-4 0.003,-0.001 0.005,-0.002 0.001,-7.9e-4 0.003,-0.002 0.003,-0.003 6.6e-4,-9.4e-4 8.5e-4,-0.002 7.7e-4,-0.003 -1e-4,-8.4e-4 -5.5e-4,-0.002 -0.001,-0.002 -6.7e-4,-6.6e-4 -0.002,-10e-4 -0.003,-0.002 -10e-4,-4.2e-4 -0.002,-7e-4 -0.003,-8.6e-4 -10e-4,-1.5e-4 -0.002,-1.9e-4 -0.003,-1.2e-4 -10e-4,6e-5 -0.002,2.3e-4 -0.003,4.6e-4 -7.7e-4,2.3e-4 -0.001,5.3e-4 -0.002,8.5e-4 -4.5e-4,3.3e-4 -7.6e-4,6.8e-4 -9.4e-4,0.001 -1.5e-4,3.5e-4 -1.4e-4,6.8e-4 -2e-5,9.5e-4 1.2e-4,3e-4 3.6e-4,5.7e-4 6.6e-4,8e-4 3.2e-4,2.2e-4 7.1e-4,4e-4 0.001,5.3e-4 4.1e-4,1.3e-4 8.4e-4,2e-4 10e-4,2.3e-4 4.2e-4,4e-5 8.3e-4,2e-5 10e-4,-3e-5 3.7e-4,-5e-5 7e-4,-1.3e-4 9.4e-4,-2.3e-4 2.6e-4,-1.1e-4 4.6e-4,-2.3e-4 5.9e-4,-3.6e-4 1.4e-4,-1.3e-4 2.2e-4,-2.6e-4 2.4e-4,-3.9e-4 2e-5,-1.3e-4 -2e-5,-2.5e-4 -8e-5,-3.6e-4 -7e-5,-1.1e-4 -1.9e-4,-2e-4 -3.2e-4,-2.7e-4 -1.4e-4,-8e-5 -2.9e-4,-1.3e-4 -4.6e-4,-1.7e-4 -1.5e-4,-4e-5 -3.2e-4,-5e-5 -4.7e-4,-5e-5 -1.7e-4,0 -3.1e-4,10e-6 -4.4e-4,4e-5 -1.2e-4,2e-5 -2.4e-4,6e-5 -3.2e-4,1e-4 -9e-5,5e-5 -1.4e-4,1e-4 -1.9e-4,1.5e-4 -3e-5,5e-5 -5e-5,1e-4 -3e-5,1.5e-4 0,4e-5 1e-5,9e-5 6e-5,1.2e-4 4e-5,4e-5 9e-5,7e-5 1.4e-4,1e-4 5e-5,2e-5 1.2e-4,4e-5 1.9e-4,5e-5 5e-5,1e-5 1.1e-4,1e-5 1.8e-4,1e-5 5e-5,-1e-5 10e-5,-2e-5 1.5e-4,-3e-5 4e-5,-1e-5 7e-5,-3e-5 1e-4,-5e-5 2e-5,-2e-5 4e-5,-4e-5 6e-5,-5e-5 0,-2e-5 0,-4e-5 0,-6e-5 0,-2e-5 -2e-5,-3e-5 -4e-5,-4e-5 -2e-5,-2e-5 -3e-5,-3e-5 -6e-5,-4e-5 -2e-5,0 -4e-5,-1e-5 -7e-5,-1e-5 -2e-5,0 -5e-5,0 -7e-5,0 -2e-5,1e-5 -3e-5,1e-5 -5e-5,2e-5 -2e-5,0 -2e-5,1e-5 -4e-5,2e-5 0,0 -1e-5,1e-5 -1e-5,2e-5 0,1e-5 0,1e-5 0,2e-5 1e-5,0 1e-5,1e-5 3e-5,1e-5 0,1e-5 0,1e-5 2e-5,1e-5 2e-5,0 2e-5,10e-6 3e-5,10e-6 0,0 2e-5,0 2e-5,-10e-6 0,0 2e-5,0 2e-5,0 0,0 10e-6,-1e-5 10e-6,-1e-5 0,0 0,-1e-5 0,-1e-5 0,0 0,0 0,-1e-5 0,0 -10e-6,0 -10e-6,0 0,0 0,0 0,0 -2e-5,0 -2e-5,0 -2e-5,0 0,0 0,0 0,0 -2e-5,0 -2e-5,0 -2e-5,0 0,0 0,0 0,0 0,0 0,1e-5 0,1e-5 0,0 0,0 0,0 0,0 0,0 0,0 0,0 0,0 2e-5,0 0,0 0,0 0,0 0,0 0,0 0,0 0,0 0,0 0,0 0,0 0,0 0,0 0,0 0,0 0,0 0,0 0,0 0,0 0,0 0,0 0,0 0,0 0,0 0,0 0,0 0,0 0,0 0,0 0,0 0,0 0,0 0,0 0,0 0,0 0,0 0,0 0,0 0,0 0,0 0,0 0,0 0,0 0,0 0,0 0,0 0,0 0,0 0,0 0,0 0,0 0,0 0,0 0,0 0,0 0,0 0,0 0,0 0,0 0,0 0,0 0,0 0,0 0,0 0,0 0,0 0,0 0,0 0,0 0,0 0,0 0,0 0,0 0,0 0,0 0,0 0,0 0,0 0,0 0,0 0,0 0,0 0,0 0,0 0,0 0,0 0,0 0,0 0,0 0,0 0,0 0,0 0,0 0,0 0,0 0,0 0,0 0,0 0,0 0,0 0,0 0,0 0,0 0,0 0,0 0,0 0,0 0,0 0,0 0,0 0,0 0,0 0,0 0,0 0,0 0,0 0,0 0,0 0,0 0,0 0,0 0,0 0,0 0,0 0,0 0,0 0,0 0,0 0,0 0,0 0,0 0,0 0,0 0,0 0,0 0,0 0,0 0,0 0,0 0,0 0,0 0,0 0,0 0,0 0,0 0,0 0,0 0,0 0,0 0,0 0,0 0,0 0,0 0,0 0,0 0,0 0,0 0,0 0,0 0,0 0,0 0,0 0,0 0,0 0,0 0,0 0,0 0,0 0,0 0,0 0,0 0,0 0,0 0,0 0,0 0,0 0,0 0,0 0,0 0,0 0,0 0,0 0,0 0,0 0,0 0,0 0,0 0,0 0,0 0,0 0,0 0,0 0,0 0,0 0,0 0,0 0,0 0,0 0,0 0,0 0,0 0,0 0,0 0,0 0,0 0,0 0,0 0,0 0,0 0,0 0,0 0,0 0,0 0,0 0,0 0,0 0,0 0,0 0,0 0,0 0,0 0,0 0,0 0,0 0,0 0,0 0,0 0,0 0,0 0,0 0,0 0,0 0,0 0,0 0,0 0,0 0,0 0,0 0,0 0,0 0,0 0,0 0,0 0,0 0,0 0,0 0,0 0,0 0,0 0,0 0,0 0,0 0,0 0,0 0,0 0,0 0,0 0,0 0,0 0,0 0,0 0,0 0,0 0,0 0,0 0,0 0,0 0,0 0,0 0,0 0,0 0,0 0,0 0,0 0,0 0,0 0,0 0,0 0,0 0,0 0,0 0,0 0,0 0,0 0,0 0,0 0,0 0,0 0,0 0,0 0,0 0,0 0,0 0,0 0,0 0,0 0,0 0,0 0,0 0,0 0,0 0,0 0,0 0,0 0,0 0,0 0,0 0,0 0,0 0,0 0,0 0,0 0,0 0,0 0,0 0,0 0,0 0,0 0,0 0,0 0,0 0,0 0,0 0,0 0,0 0,0 0,0 0,0 0,0 0,0 0,0 0,0 0,0 0,0 0,0 0,0 0,0 0,0 0,0 0,0 0,0 0,0 0,0 0,0 0,0 0,0"
           title="(0.5*(1+sqrt(5)))**(-2*x/pi)"
           id="path6532" />
        <circle
           r="10.63204"
           cy="152.90388"
           cx="55.928841"
           id="path6550"
           style="fill:#000000;fill-opacity:1;stroke:#000000;stroke-width:2.53399992;stroke-linejoin:round;stroke-miterlimit:4;stroke-dasharray:none;stroke-opacity:1" />
        <path
           style="fill:none;stroke:#000000;stroke-width:2.53399992;stroke-linecap:butt;stroke-linejoin:miter;stroke-miterlimit:4;stroke-dasharray:none;stroke-opacity:1"
           d="M 0.7349537,156.62383 60.419892,150.54433 -8.0844908,141.1898"
           id="path7030"
           inkscape:connector-curvature="0" />
      </g>
    </g>
  </g>
</svg>
